<svg xmlns="http://www.w3.org/2000/svg" xml:space="preserve" width="300" height="490" version="1.1" style="shape-rendering:geometricPrecision; text-rendering:geometricPrecision; image-rendering:optimizeQuality; fill-rule:evenodd; clip-rule:evenodd" viewBox="0 0 10074 16524" xmlns:xlink="http://www.w3.org/1999/xlink"> 
<defs>  
    <style type="text/css">
        .str0 {stroke:#ffffff;stroke-width:6.85088;stroke-linecap:round;stroke-linejoin:round}    .fil0 {fill:#aaaaaa}     
    </style> 
</defs>

<g> 

<path id="Norte" class="fil0 str0" d="M7778 6698L7779 6701L7767 6708L7762 6724L7751 6724L7755 6737L7745 6752L7720 6744L7725 6759L7717 6760L7722 6768L7714 6764L7714 6778L7705 6767L7693 6787L7685 6774L7684 6790L7676 6787L7676 6800L7667 6806L7673 6810L7670 6818L7658 6818L7643 6807L7646 6817L7639 6825L7650 6824L7652 6830L7659 6824L7669 6828L7676 6835L7664 6841L7676 6845L7661 6850L7668 6859L7661 6866L7656 6861L7657 6872L7648 6872L7648 6886L7637 6898L7648 6912L7639 6929L7659 6941L7666 6939L7664 6956L7680 6952L7679 6963L7693 6972L7697 7005L7690 7015L7670 7021L7643 7049L7643 7077L7637 7084L7626 7087L7614 7079L7609 7085L7622 7120L7636 7134L7637 7156L7652 7160L7649 7169L7657 7174L7663 7188L7665 7215L7658 7224L7666 7260L7644 7276L7657 7288L7652 7301L7643 7301L7635 7310L7635 7318L7644 7326L7635 7344L7588 7349L7558 7379L7552 7381L7540 7366L7515 7366L7485 7391L7500 7407L7494 7415L7503 7420L7499 7427L7506 7436L7520 7436L7531 7459L7507 7470L7504 7494L7478 7495L7482 7521L7449 7523L7446 7534L7435 7535L7445 7563L7441 7582L7429 7590L7429 7606L7408 7606L7408 7589L7401 7587L7407 7602L7394 7631L7380 7609L7383 7592L7374 7587L7350 7541L7328 7534L7313 7546L7294 7519L7282 7514L7278 7500L7238 7493L7230 7497L7229 7506L7213 7507L7206 7488L7192 7475L7164 7479L7165 7466L7157 7467L7155 7479L7143 7479L7151 7493L7118 7492L7113 7502L7093 7507L7088 7520L7075 7519L7068 7527L7059 7529L7054 7505L7029 7507L7026 7512L7037 7530L7028 7522L7026 7533L6998 7548L6990 7569L7002 7579L6992 7590L6981 7584L6976 7595L6992 7605L6981 7621L6979 7639L6995 7651L7015 7619L7021 7620L7023 7637L7003 7644L7008 7658L6976 7661L6969 7673L6970 7693L6954 7716L6974 7733L6966 7738L6966 7755L6978 7758L6967 7770L6957 7796L6958 7807L6970 7806L6963 7829L6965 7848L6953 7845L6943 7853L6959 7859L6953 7873L6960 7890L6947 7900L6954 7908L6929 7909L6938 7930L6952 7941L6942 7949L6950 7992L6939 8002L6933 8025L6942 8037L6906 8055L6906 8068L6893 8085L6920 8095L6900 8104L6876 8131L6807 8140L6802 8149L6812 8164L6793 8175L6780 8202L6749 8198L6758 8168L6749 8159L6734 8162L6723 8155L6706 8126L6659 8104L6624 8103L6607 8092L6566 8125L6548 8126L6541 8114L6483 8145L6480 8153L6433 8137L6417 8149L6415 8158L6438 8176L6440 8200L6409 8230L6350 8257L6277 8230L6263 8245L6260 8266L6245 8279L6233 8289L6205 8282L6196 8286L6190 8322L6179 8335L6167 8336L6138 8310L6109 8293L6085 8288L6054 8288L6042 8298L6028 8298L6020 8293L6026 8264L6024 8256L6003 8257L5996 8293L5990 8295L5961 8288L5945 8268L5898 8273L5858 8265L5837 8248L5842 8268L5823 8295L5771 8332L5750 8326L5720 8293L5693 8307L5670 8306L5665 8306L5656 8272L5625 8261L5603 8237L5567 8283L5550 8286L5543 8298L5505 8325L5500 8342L5502 8368L5478 8399L5402 8418L5345 8405L5320 8379L5320 8418L5327 8436L5318 8463L5286 8471L5255 8499L5162 8523L5150 8529L5138 8513L5101 8499L5088 8467L5092 8431L5083 8390L5077 8387L5066 8350L5064 8328L5042 8315L5040 8292L5031 8295L5023 8282L5012 8279L5005 8285L4993 8280L4981 8274L4962 8283L4960 8300L4952 8298L4943 8313L4931 8314L4919 8307L4906 8287L4895 8288L4901 8274L4878 8275L4865 8245L4844 8236L4832 8237L4828 8244L4807 8237L4803 8223L4781 8200L4807 8122L4842 8070L4852 7998L4911 7900L4890 7894L4879 7909L4863 7884L4816 7888L4798 7860L4783 7866L4777 7849L4787 7847L4786 7828L4781 7832L4776 7824L4783 7820L4769 7803L4775 7792L4766 7779L4748 7782L4742 7778L4730 7762L4758 7674L4747 7582L4716 7575L4686 7580L4567 7495L4558 7494L4476 7535L4385 7568L4379 7582L4384 7603L4365 7625L4358 7621L4359 7604L4345 7605L4333 7619L4276 7621L4238 7650L4217 7644L4207 7632L4191 7642L4175 7641L4160 7624L4154 7644L4178 7672L4160 7676L4131 7703L4136 7729L4123 7733L4123 7740L4155 7750L4134 7781L4139 7786L4157 7778L4171 7791L4161 7855L4147 7865L4124 7893L4107 7940L4093 7938L4047 7970L4031 7965L4014 7995L4010 8021L3986 8020L3975 8027L3949 8015L3929 7987L3912 7985L3923 7960L3927 7927L3923 7906L3914 7892L3899 7885L3887 7862L3868 7867L3863 7862L3859 7790L3853 7784L3840 7778L3812 7782L3806 7794L3794 7799L3780 7775L3759 7760L3744 7765L3727 7759L3664 7764L3618 7789L3607 7776L3556 7760L3547 7758L3533 7746L3495 7745L3488 7754L3474 7747L3468 7728L3438 7729L3424 7715L3408 7673L3391 7665L3357 7665L3340 7645L3306 7637L3292 7618L3275 7614L3260 7621L3252 7615L3257 7612L3250 7590L3235 7581L3230 7569L3213 7566L3184 7537L3142 7521L3114 7497L3094 7497L3065 7515L3037 7514L3041 7482L3025 7444L3027 7417L2979 7406L2970 7381L2944 7352L2971 7331L2992 7305L2988 7289L2995 7256L3027 7223L3035 7170L3024 7149L3026 7137L3013 7079L2994 7060L2987 7038L2990 7027L2952 6987L2930 6942L2905 6918L2903 6903L2894 6897L2892 6878L2884 6883L2874 6868L2873 6875L2865 6875L2860 6868L2867 6866L2864 6859L2851 6858L2849 6844L2841 6844L2845 6838L2834 6833L2830 6804L2835 6802L2817 6794L2813 6798L2805 6787L2811 6779L2804 6775L2809 6772L2797 6744L2781 6744L2776 6732L2772 6735L2772 6723L2757 6721L2728 6724L2713 6717L2715 6726L2706 6730L2700 6716L2694 6717L2698 6728L2683 6728L2699 6614L2734 6537L2783 6471L2806 6456L2855 6441L2901 6412L2915 6394L2929 6363L2942 6322L2951 6282L2969 6210L2984 6147L3009 6102L3037 6048L3062 5988L3074 5917L3067 5883L3078 5855L3083 5813L3095 5791L3121 5773L3131 5739L3135 5681L3130 5657L3117 5593L3142 5549L3155 5482L3156 5441L3148 5401L3146 5349L3147 5339L3151 5306L3164 5290L3184 5255L3180 5245L3165 5228L3075 5190L3039 5164L3001 5123L2954 5088L2889 5035L2826 4998L2808 4973L2799 4957L2760 4872L2718 4775L2714 4736L2726 4638L2787 4567L2842 4507L2913 4421L2950 4379L2973 4344L3018 4297L3049 4241L3068 4187L3111 4117L3115 4076L3107 4032L3106 4023L3106 4022L3094 3907L3095 3858L3099 3798L3094 3730L3091 3701L3063 3615L3051 3600L3046 3572L3052 3526L3062 3500L3097 3476L3113 3465L3122 3446L3137 3436L3180 3427L3250 3390L3314 3337L3393 3282L3418 3254L3443 3219L3553 3210L3588 3190L3601 3184L3652 3166L3730 3157L3786 3148L3800 3152L3815 3159L3923 3124L3941 3113L3966 3086L4006 3037L4114 3008L4149 2977L4168 2953L4175 2932L4174 2877L4150 2794L4151 2778L4163 2732L4185 2701L4188 2667L4215 2629L4227 2611L4252 2561L4338 2496L4348 2485L4381 2468L4417 2434L4456 2369L4478 2357L4583 2357L4629 2369L4705 2415L4715 2406L4727 2349L4727 2349L4715 2312L4654 2268L4643 2253L4643 2235L4652 2218L4640 2192L4605 2043L4614 2011L4661 1964L4695 1950L4747 1952L4828 1923L4870 1891L4906 1841L4911 1821L4906 1799L4873 1753L4812 1735L4801 1715L4808 1667L4849 1617L4863 1608L4903 1594L4973 1580L5014 1551L5018 1520L5009 1488L4986 1452L4919 1382L4896 1339L4886 1304L4878 1230L4890 1163L4899 1145L4918 1120L4932 1112L5037 1118L5089 1102L5129 1081L5198 956L5206 937L5212 899L5200 868L5113 809L5052 771L5020 765L5001 768L4954 759L4920 744L4895 723L4876 709L4839 664L4826 651L4821 657L4823 637L4795 598L4791 554L4774 520L4742 494L4731 470L4714 456L4691 453L4675 471L4639 468L4594 481L4571 486L4549 489L4525 502L4495 516L4450 524L4416 514L4363 498L4285 509L4255 502L4220 484L4178 434L4118 422L4045 419L4038 412L4027 417L3988 404L3966 371L3969 363L3997 370L4018 361L4049 371L4061 367L4070 354L4081 305L4094 289L4120 277L4176 288L4201 305L4218 331L4254 342L4266 338L4310 288L4341 231L4341 191L4356 136L4356 126L4400 76L4432 53L4505 54L4546 37L4713 12L4750 3L4765 10L4836 69L4890 74L4931 98L5007 123L5027 137L5064 164L5096 173L5120 187L5262 200L5318 216L5371 201L5447 142L5468 135L5601 145L5704 187L5730 210L5735 227L5742 276L5740 351L5788 417L5820 438L5889 434L5938 421L5986 425L6002 432L6103 490L6141 508L6237 583L6269 594L6313 604L6346 590L6363 595L6427 664L6474 714L6486 743L6507 793L6505 854L6514 906L6519 932L6526 986L6510 1019L6488 1081L6487 1122L6506 1174L6533 1205L6589 1322L6598 1376L6611 1398L6608 1447L6614 1482L6613 1530L6578 1645L6596 1684L6617 1737L6613 1795L6605 1844L6607 1882L6627 1977L6684 2095L6703 2117L6712 2156L6719 2189L6667 2295L6665 2297L6652 2325L6650 2344L6651 2364L6654 2388L6649 2408L6634 2458L6610 2505L6605 2517L6641 2622L6623 2648L6605 2662L6561 2730L6556 2752L6554 2772L6552 2777L6545 2824L6547 2867L6476 2994L6487 3031L6481 3046L6451 3094L6451 3094L6481 3046L6480 3093L6487 3154L6441 3231L6415 3313L6419 3326L6433 3331L6460 3394L6464 3437L6459 3464L6415 3541L6417 3596L6403 3624L6384 3674L6358 3711L6325 3749L6285 3772L6238 3830L6222 3885L6186 3934L6154 3950L6124 3943L6087 3921L6065 3919L5998 3959L5979 3983L5974 4026L5988 4063L6003 4083L6005 4084L6093 4123L6126 4166L6167 4242L6179 4254L6196 4257L6206 4255L6228 4239L6260 4190L6274 4179L6299 4173L6388 4177L6410 4185L6466 4226L6503 4281L6508 4290L6517 4319L6516 4337L6513 4351L6508 4368L6477 4402L6454 4416L6346 4458L6319 4477L6292 4523L6348 4544L6373 4523L6433 4509L6465 4518L6475 4552L6478 4602L6513 4628L6514 4695L6523 4710L6536 4706L6551 4682L6597 4687L6618 4695L6625 4706L6623 4727L6613 4739L6595 4756L6629 4769L6662 4771L6678 4789L6665 4817L6709 4843L6709 4881L6699 4913L6710 4950L6743 4954L6769 4936L6766 4923L6744 4913L6728 4893L6729 4885L6754 4875L6770 4885L6776 4905L6802 4916L6826 4952L6845 4963L6833 4972L6814 4968L6798 4976L6811 4990L6806 4998L6810 5012L6868 5020L6868 5046L6861 5049L6852 5038L6841 5045L6845 5055L6861 5069L6843 5077L6848 5105L6870 5111L6886 5097L6908 5111L6926 5104L6931 5111L6925 5132L6950 5124L6950 5145L6939 5164L6955 5153L6962 5160L6980 5158L6963 5171L6982 5204L6978 5213L6991 5229L6979 5243L7002 5249L6979 5259L6983 5272L6994 5268L7004 5280L7013 5274L7004 5288L7026 5294L7043 5312L7059 5310L7058 5320L7072 5321L7071 5330L7080 5339L7098 5327L7098 5356L7107 5357L7114 5350L7123 5354L7112 5364L7122 5382L7146 5399L7151 5416L7167 5430L7187 5430L7182 5465L7190 5490L7209 5484L7221 5490L7229 5484L7239 5517L7258 5513L7240 5544L7248 5558L7261 5546L7268 5548L7263 5562L7269 5572L7259 5578L7277 5599L7259 5621L7305 5616L7328 5632L7328 5639L7342 5644L7351 5660L7354 5694L7370 5710L7365 5722L7382 5732L7385 5746L7423 5752L7430 5759L7443 5754L7455 5763L7468 5754L7469 5771L7477 5773L7493 5734L7508 5739L7511 5730L7546 5717L7539 5708L7563 5691L7559 5672L7565 5652L7573 5656L7580 5649L7589 5633L7624 5623L7629 5630L7626 5610L7635 5603L7653 5600L7661 5613L7679 5613L7693 5589L7706 5585L7706 5567L7726 5550L7732 5552L7729 5563L7739 5578L7748 5561L7770 5554L7783 5570L7791 5570L7795 5558L7808 5566L7822 5558L7851 5544L7858 5542L7867 5539L7871 5550L7886 5546L7892 5534L7898 5543L7904 5542L7907 5530L7923 5526L7934 5511L7936 5517L7944 5517L7958 5484L7977 5493L7987 5485L7996 5489L8005 5477L8018 5487L8026 5470L8044 5468L8054 5460L8076 5473L8099 5465L8124 5469L8134 5448L8149 5441L8156 5448L8169 5458L8189 5453L8208 5437L8241 5433L8276 5439L8288 5452L8307 5457L8318 5472L8325 5469L8345 5481L8354 5492L8354 5517L8371 5538L8382 5537L8432 5557L8489 5605L8498 5629L8497 5645L8516 5663L8510 5724L8514 5745L8536 5771L8536 5787L8529 5807L8505 5815L8491 5833L8486 5869L8452 5952L8440 5970L8440 5989L8452 6004L8473 6008L8494 6037L8490 6053L8465 6077L8451 6111L8454 6178L8425 6223L8402 6237L8382 6274L8352 6286L8315 6280L8289 6292L8256 6292L8239 6291L8209 6273L8188 6279L8151 6302L8114 6309L8100 6324L8057 6338L8045 6360L8027 6372L8017 6401L8002 6406L7989 6389L7965 6383L7948 6392L7917 6372L7906 6371L7898 6384L7898 6400L7887 6407L7899 6426L7897 6433L7881 6445L7857 6433L7873 6460L7872 6480L7880 6495L7867 6523L7878 6528L7840 6575L7829 6565L7824 6583L7814 6580L7806 6564L7801 6572L7787 6566L7789 6581L7769 6586L7773 6610L7769 6613L7777 6621L7778 6637L7769 6641L7777 6656L7767 6666L7784 6679L7769 6685z" /> 

<path id="Centro Sul" class="fil0 str0" d="M3975 8027L3985 8020L4009 8020L4013 7994L4031 7965L4046 7970L4092 7938L4107 7939L4124 7893L4147 7864L4161 7855L4171 7790L4157 7777L4139 7786L4133 7780L4155 7749L4122 7739L4123 7732L4136 7729L4131 7702L4159 7675L4178 7672L4154 7643L4159 7623L4175 7641L4191 7642L4207 7632L4217 7644L4238 7649L4276 7620L4333 7619L4345 7604L4358 7603L4357 7620L4365 7624L4384 7602L4378 7581L4385 7567L4475 7535L4558 7493L4566 7495L4686 7579L4715 7574L4747 7581L4757 7673L4729 7762L4742 7777L4748 7782L4765 7778L4774 7792L4769 7802L4783 7819L4776 7824L4781 7831L4786 7828L4787 7847L4776 7849L4783 7865L4797 7860L4816 7887L4863 7883L4879 7908L4889 7893L4911 7899L4852 7998L4841 8070L4806 8122L4780 8200L4803 8223L4807 8236L4828 8244L4832 8236L4844 8235L4865 8245L4878 8274L4901 8274L4895 8288L4906 8287L4919 8307L4931 8313L4942 8312L4951 8297L4960 8299L4961 8283L4980 8274L4993 8279L5005 8284L5011 8279L5022 8281L5030 8295L5040 8291L5042 8314L5064 8327L5065 8350L5077 8386L5083 8389L5092 8430L5087 8467L5100 8498L5137 8512L5149 8528L5161 8523L5254 8498L5286 8470L5317 8463L5327 8436L5320 8417L5319 8378L5345 8405L5402 8417L5478 8398L5502 8368L5499 8342L5505 8325L5543 8298L5549 8285L5567 8282L5603 8237L5625 8261L5655 8271L5665 8306L5669 8305L5692 8307L5719 8293L5750 8325L5771 8331L5823 8294L5842 8268L5837 8247L5857 8265L5898 8273L5944 8268L5960 8288L5990 8295L5995 8293L6003 8256L6023 8256L6026 8263L6019 8293L6027 8298L6042 8297L6054 8287L6085 8288L6109 8292L6138 8309L6167 8336L6178 8335L6190 8322L6196 8286L6204 8282L6233 8289L6244 8279L6260 8266L6263 8244L6277 8230L6350 8257L6409 8229L6440 8199L6438 8176L6415 8157L6416 8148L6432 8136L6479 8152L6482 8144L6540 8114L6548 8126L6565 8124L6607 8092L6623 8102L6659 8103L6706 8126L6723 8154L6734 8161L6748 8159L6758 8168L6748 8198L6780 8202L6793 8174L6812 8163L6801 8149L6807 8140L6875 8131L6899 8103L6919 8095L6892 8085L6906 8067L6906 8054L6942 8036L6933 8025L6939 8002L6950 7992L6942 7948L6952 7941L6938 7930L6928 7908L6954 7907L6947 7900L6960 7889L6952 7873L6958 7859L6942 7852L6952 7844L6965 7847L6963 7829L6970 7805L6958 7806L6957 7795L6967 7769L6978 7758L6965 7754L6966 7738L6974 7733L6954 7716L6970 7692L6968 7672L6975 7661L7008 7657L7003 7644L7023 7637L7020 7620L7014 7618L6995 7651L6979 7639L6981 7621L6992 7605L6975 7594L6981 7584L6991 7590L7002 7579L6989 7569L6998 7548L7025 7532L7028 7521L7037 7529L7026 7512L7029 7507L7053 7504L7059 7528L7067 7526L7075 7519L7088 7519L7092 7506L7113 7501L7118 7492L7150 7492L7143 7479L7154 7479L7157 7467L7165 7465L7163 7479L7191 7475L7206 7487L7212 7506L7229 7506L7230 7496L7238 7493L7278 7500L7281 7513L7294 7519L7312 7545L7328 7533L7350 7540L7373 7586L7382 7591L7379 7608L7394 7630L7383 7642L7347 7644L7335 7653L7359 7666L7374 7660L7374 7672L7384 7674L7385 7681L7363 7696L7363 7724L7348 7724L7356 7734L7336 7740L7334 7756L7375 7771L7380 7765L7403 7767L7424 7780L7451 7768L7444 7784L7457 7792L7471 7791L7474 7781L7500 7781L7519 7791L7591 7755L7624 7759L7647 7793L7633 7802L7613 7794L7608 7800L7614 7813L7610 7819L7624 7823L7611 7840L7619 7863L7608 7869L7607 7883L7618 7897L7636 7891L7658 7898L7673 7879L7684 7872L7693 7885L7688 7908L7749 7920L7766 7936L7775 7963L7766 7999L7769 8010L7792 8022L7815 8015L7832 8045L7817 8073L7813 8106L7833 8146L7825 8159L7807 8163L7805 8185L7781 8194L7777 8211L7786 8234L7800 8242L7833 8232L7844 8235L7854 8269L7872 8303L7904 8327L7911 8342L7934 8356L7953 8387L7938 8428L7948 8445L7978 8453L7988 8449L7994 8434L8024 8417L8078 8422L8120 8406L8138 8409L8167 8437L8204 8448L8182 8464L8174 8479L8171 8512L8190 8540L8215 8555L8243 8555L8269 8565L8282 8589L8323 8579L8348 8592L8351 8610L8318 8640L8318 8659L8353 8692L8355 8701L8388 8724L8396 8737L8311 8791L8285 8797L8285 8838L8257 8883L8256 8926L8244 8954L8163 9009L8169 9031L8179 9055L8177 9089L8185 9107L8205 9119L8277 9116L8319 9138L8331 9160L8328 9183L8310 9213L8316 9231L8345 9242L8385 9241L8444 9216L8450 9223L8452 9239L8482 9275L8475 9308L8483 9319L8508 9331L8489 9342L8486 9360L8523 9375L8527 9416L8518 9433L8512 9467L8538 9494L8515 9525L8525 9566L8514 9596L8555 9655L8554 9713L8582 9774L8627 9780L8701 9858L8733 9955L8772 9963L8813 9984L8842 9963L8865 9974L8922 9980L8986 9961L9028 9959L9046 9957L9064 9965L9078 9983L9136 10043L9187 10030L9214 10031L9268 10043L9366 9980L9389 9971L9411 9971L9421 9984L9432 10097L9459 10140L9477 10117L9519 10113L9574 10134L9615 10117L9711 10095L9780 10135L9879 10152L9978 10096L9998 10074L10012 10031L9997 9987L9996 9961L10013 9931L10020 9928L10034 9951L10067 9951L10065 9974L10054 9994L10069 10048L10071 10143L10055 10156L10037 10185L10018 10250L9980 10309L9959 10320L9871 10321L9830 10336L9812 10352L9805 10403L9824 10426L9826 10443L9805 10492L9737 10492L9691 10513L9665 10536L9653 10562L9543 10633L9525 10671L9499 10674L9478 10686L9439 10684L9417 10699L9412 10747L9394 10753L9348 10762L9348 10800L9338 10818L9313 10827L9276 10822L9235 10852L9193 10857L9155 10873L9133 10851L9092 10866L9089 10876L9046 10912L9044 10921L9092 10978L9086 11033L9083 11051L9032 11078L8965 11126L8968 11136L9013 11145L9008 11208L9000 11220L8976 11236L8922 11252L8900 11275L8874 11345L8901 11405L8901 11423L8834 11465L8811 11495L8758 11525L8713 11571L8671 11598L8657 11648L8625 11680L8574 11793L8562 11920L8524 11989L8493 12017L8469 12021L8305 12100L8252 12118L8270 12137L8251 12176L8236 12185L8238 12210L8250 12223L8259 12250L8266 12300L8297 12338L8335 12350L8346 12354L8371 12367L8372 12422L8383 12436L8413 12450L8419 12470L8416 12536L8425 12564L8465 12603L8497 12614L8510 12637L8532 12641L8552 12633L8578 12633L8615 12656L8634 12682L8646 12688L8665 12686L8683 12673L8708 12673L8748 12675L8776 12693L8842 12683L8889 12706L8928 12718L8951 12717L8996 12734L9016 12746L9031 12768L9041 12795L9062 12808L9094 12815L9135 12802L9151 12818L9185 12819L9213 12812L9277 12833L9294 12847L9292 12853L9301 12875L9293 12888L9204 12896L9186 12900L9160 12917L9122 12907L9092 12914L9025 12892L8956 12845L8937 12851L8914 12849L8885 12860L8859 12854L8845 12857L8835 12877L8838 12892L8865 12926L8879 12960L8880 12988L8873 12999L8850 13010L8810 13076L8736 13093L8722 13104L8727 13122L8755 13120L8774 13109L8790 13135L8823 13143L8819 13158L8797 13175L8805 13207L8793 13234L8767 13245L8774 13273L8758 13285L8732 13270L8722 13274L8726 13310L8720 13338L8738 13369L8766 13365L8815 13394L8832 13397L8898 13372L8955 13398L8992 13405L9041 13397L9080 13369L9106 13371L9123 13396L9118 13420L9083 13459L9047 13461L8972 13495L8877 13498L8817 13517L8782 13550L8756 13562L8722 13608L8721 13630L8678 13652L8673 13679L8705 13705L8712 13718L8692 13744L8706 13764L8697 13783L8732 13795L8736 13821L8726 13843L8729 13867L8718 13904L8710 13919L8689 13931L8689 13939L8703 13946L8707 13956L8687 13985L8731 13997L8732 14027L8749 14045L8736 14080L8707 14092L8711 14105L8736 14130L8735 14148L8720 14176L8768 14191L8810 14193L8822 14203L8818 14213L8776 14226L8766 14238L8769 14250L8762 14258L8764 14271L8788 14270L8800 14281L8802 14285L8803 14286L8819 14308L8843 14308L8876 14331L8897 14354L8880 14365L8876 14391L8859 14406L8866 14427L8883 14430L8901 14418L8921 14424L8938 14421L8955 14444L8972 14473L8973 14492L8961 14515L8959 14583L9012 14591L9094 14550L9148 14544L9160 14561L9144 14585L9164 14622L9146 14651L9064 14655L9014 14667L8976 14687L8955 14688L8946 14693L8936 14738L8908 14763L8922 14781L8887 14859L8921 14869L8925 14880L8945 14886L8956 14903L8937 14929L8899 14951L8882 14978L8896 14990L8895 15003L8915 15004L8938 15026L8933 15070L8908 15093L8916 15110L8918 15142L8902 15159L8912 15177L8907 15203L8923 15215L8928 15234L8944 15254L8922 15285L8893 15303L8882 15311L8899 15348L8896 15381L8873 15405L8883 15429L8859 15490L8909 15476L8917 15461L8935 15455L9027 15471L9072 15441L9099 15438L9190 15409L9216 15410L9240 15427L9228 15442L9170 15464L9145 15458L9114 15469L9108 15485L9092 15489L9079 15503L9021 15504L8914 15532L8908 15527L8894 15538L8888 15535L8845 15551L8800 15551L8797 15557L8791 15555L8740 15572L8722 15559L8732 15535L8715 15517L8726 15507L8724 15479L8735 15469L8739 15453L8738 15417L8747 15408L8732 15396L8745 15371L8734 15366L8740 15355L8730 15346L8736 15320L8720 15310L8716 15291L8716 15298L8701 15289L8674 15294L8652 15283L8655 15269L8647 15272L8646 15247L8634 15238L8603 15452L8594 15461L8577 15463L8560 15532L8368 15531L8202 15530L8198 15530L8056 15529L7969 15528L7831 15594L7824 15606L7833 15617L7813 15627L7802 15657L7790 15658L7776 15680L7781 15688L7776 15697L7773 15691L7761 15700L7762 15723L7733 15726L7729 15716L7727 15709L7717 15713L7710 15708L7713 15687L7685 15695L7666 15723L7649 15727L7613 15755L7613 15774L7578 15787L7563 15811L7544 15813L7514 15831L7514 15851L7494 15844L7497 15832L7487 15837L7469 15831L7461 15838L7461 15852L7452 15870L7433 15880L7426 15872L7400 15884L7400 15890L7388 15885L7377 15903L7369 15900L7346 15911L7334 15899L7327 15909L7317 15911L7310 15912L7311 15921L7302 15929L7311 15944L7297 15952L7292 15936L7277 15931L7267 15937L7261 15951L7256 15951L7254 15930L7235 15943L7207 15945L7191 15963L7204 15967L7202 15994L7164 16007L7148 15999L7137 16010L7127 16000L7106 15999L7103 15995L7122 15978L7106 15964L7079 15975L7049 15973L7037 15981L7021 15975L7008 15986L7008 15997L6969 16012L6976 16047L6967 16057L6937 16064L6938 16083L6922 16089L6908 16117L6893 16111L6901 16100L6886 16100L6884 16085L6855 16086L6827 16104L6798 16080L6768 16085L6737 16059L6730 16045L6714 16049L6706 16070L6697 16068L6686 16078L6688 16112L6678 16109L6641 16127L6622 16166L6608 16163L6598 16145L6604 16123L6563 16086L6577 16069L6611 16063L6602 16041L6586 16032L6550 16042L6502 16032L6498 16004L6517 15963L6504 15953L6454 15967L6426 15952L6408 15955L6391 15972L6348 15956L6337 15887L6351 15838L6330 15822L6288 15822L6238 15798L6219 15809L6205 15795L6202 15817L6181 15829L6183 15845L6173 15855L6183 15865L6176 15867L6186 15880L6185 15888L6170 15888L6165 15905L6155 15906L6134 15924L6164 15943L6158 15972L6143 15981L6152 15985L6143 15995L6152 16002L6136 16006L6144 16015L6142 16025L6165 16028L6167 16045L6159 16057L6181 16071L6178 16088L6193 16113L6175 16135L6161 16141L6156 16178L6160 16186L6150 16194L6166 16218L6162 16231L6175 16271L6174 16288L6200 16315L6229 16321L6220 16354L6206 16367L6196 16368L6188 16391L6165 16415L6160 16441L6150 16452L6139 16458L6123 16483L6116 16520L5933 16320L5873 16254L5871 16242L5843 16222L5841 16222L5827 16210L5786 16224L5752 16215L5742 16217L5734 16226L5708 16227L5697 16222L5689 16201L5671 16210L5668 16191L5659 16184L5635 16184L5627 16169L5616 16176L5604 16168L5588 16201L5579 16197L5572 16207L5563 16204L5543 16217L5534 16209L5531 16188L5518 16176L5502 16140L5477 16137L5431 16146L5418 16130L5410 16135L5407 16119L5418 16116L5410 16095L5371 16099L5372 16091L5363 16084L5366 16065L5358 16068L5351 16058L5332 16068L5323 16064L5318 16073L5331 16122L5321 16120L5320 16142L5314 16145L5320 16151L5310 16164L5290 16159L5281 16170L5263 16162L5250 16171L5240 16168L5232 16181L5175 16200L5164 16192L5161 16207L5156 16191L5146 16198L5137 16185L5169 16145L5163 16088L5139 16074L5139 16067L5170 16027L5151 16001L5146 15982L5149 15954L5165 15938L5165 15920L5186 15897L5183 15892L5160 15902L5151 15896L5146 15904L5129 15884L5109 15899L5095 15897L5104 15902L5083 15915L5089 15933L5053 15936L5043 15925L5026 15935L5013 15924L4999 15949L4986 15957L4991 15962L4982 15972L4975 15981L4951 15982L4946 15997L4940 15993L4917 16001L4924 15986L4916 15987L4907 15999L4901 15995L4899 16018L4891 16018L4892 16026L4859 16041L4863 16044L4856 16052L4864 16055L4857 16057L4844 16056L4842 16047L4820 16052L4793 16044L4796 16061L4789 16070L4803 16081L4793 16087L4775 16071L4761 16073L4735 16086L4729 16099L4718 16099L4706 16119L4701 16109L4695 16123L4674 16128L4663 16122L4644 16136L4618 16130L4612 16137L4616 16147L4604 16155L4607 16164L4594 16171L4584 16154L4563 16152L4554 16136L4554 16113L4565 16106L4555 16104L4556 16086L4563 16084L4542 16076L4537 16059L4527 16059L4533 16034L4527 16020L4534 16010L4532 15992L4522 15981L4527 15971L4523 15945L4534 15934L4533 15921L4540 15913L4538 15887L4526 15857L4519 15855L4517 15872L4502 15874L4488 15861L4465 15855L4460 15846L4434 15870L4435 15921L4418 15957L4417 15973L4384 15979L4369 15997L4371 16038L4378 16048L4367 16064L4367 16114L4359 16135L4370 16148L4371 16190L4343 16210L4322 16216L4305 16222L4299 16204L4284 16192L4277 16172L4282 16155L4299 16115L4295 16100L4303 16096L4282 16080L4277 16064L4291 16058L4312 16032L4311 16008L4319 16002L4317 15970L4322 15963L4311 15949L4321 15933L4304 15922L4305 15906L4293 15905L4285 15893L4297 15890L4300 15878L4314 15872L4315 15845L4322 15844L4323 15836L4313 15825L4316 15817L4307 15801L4286 15803L4290 15792L4300 15788L4286 15766L4285 15746L4273 15745L4275 15711L4270 15706L4258 15710L4239 15694L4223 15693L4204 15658L4200 15642L4205 15632L4198 15617L4183 15611L4165 15615L4164 15600L4150 15592L4142 15597L4128 15578L4112 15577L4105 15594L4097 15596L4092 15584L4075 15586L4063 15600L4054 15589L4043 15594L4028 15572L4017 15569L4010 15541L4017 15513L4004 15489L4000 15482L4012 15450L4006 15432L3981 15426L3970 15406L3954 15402L3937 15380L3907 15352L3906 15361L3896 15359L3889 15344L3879 15344L3879 15337L3867 15331L3869 15325L3850 15319L3856 15311L3843 15298L3837 15280L3827 15282L3817 15275L3817 15280L3795 15280L3789 15272L3795 15252L3784 15228L3786 15211L3764 15202L3754 15211L3754 15201L3740 15200L3731 15206L3742 15223L3729 15221L3720 15226L3529 15504L3520 15486L3470 15455L3460 15424L3439 15414L3434 15405L3413 15397L3380 15416L3373 15408L3325 15399L3310 15379L3315 15375L3305 15374L3305 15367L3318 15358L3310 15349L3333 15330L3339 15310L3336 15296L3345 15286L3314 15282L3287 15263L3268 15263L3238 15172L3207 15193L3198 15212L3189 15231L3178 15234L3158 15260L3095 15305L3088 15325L3063 15338L3059 15347L3036 15344L3024 15346L3018 15358L3006 15359L3010 15378L2982 15396L2988 15424L2976 15454L2967 15460L2965 15474L2955 15470L2946 15479L2923 15528L2922 15543L2930 15551L2924 15568L2913 15573L2880 15635L2837 15693L2807 15721L2773 15794L2774 15810L2792 15823L2798 15843L2776 15876L2772 15895L2792 15942L2785 15967L2792 15995L2784 16015L2802 16056L2801 16095L2743 16136L2618 16069L2423 15963L1888 15662L1689 15551L1666 15538L1661 15523L1605 15504L1579 15509L1526 15469L1505 15482L1478 15458L1449 15449L1407 15461L1396 15457L1384 15435L1342 15426L1327 15402L1277 15406L1265 15413L1231 15401L1185 15396L1164 15378L1139 15385L1132 15374L1123 15375L1118 15384L1094 15372L1085 15359L1076 15361L1063 15343L1059 15347L1035 15339L1034 15314L1022 15308L1022 15299L1013 15306L1001 15296L984 15299L983 15291L958 15286L961 15281L942 15273L934 15279L919 15272L916 15278L911 15265L900 15271L895 15249L882 15240L882 15232L877 15236L871 15230L874 15203L863 15189L867 15170L878 15164L872 15126L895 15099L881 15083L892 15077L889 15072L908 15063L917 15029L891 15014L887 15004L894 15002L897 14984L891 14976L885 14957L895 14945L900 14970L905 14959L914 14957L923 14970L929 14949L940 14959L952 14957L944 14948L957 14921L946 14903L966 14885L961 14868L971 14863L975 14843L988 14855L1011 14841L994 14788L1009 14753L1015 14749L1022 14764L1031 14767L1069 14740L1077 14722L1099 14722L1089 14705L1078 14701L1073 14702L1072 14718L1061 14717L1058 14691L1039 14681L1027 14662L1046 14629L1050 14572L1056 14559L1075 14549L1075 14526L1092 14512L1117 14505L1126 14475L1155 14469L1166 14457L1169 14420L1200 14387L1140 14412L1143 14435L1135 14443L1115 14441L1108 14436L1107 14423L1092 14422L1089 14434L1111 14443L1117 14458L1088 14459L1061 14469L1054 14478L1069 14480L1070 14492L1040 14487L1025 14506L978 14519L959 14551L936 14557L923 14552L906 14571L870 14583L835 14612L848 14613L860 14627L857 14637L825 14624L817 14635L823 14665L793 14662L793 14680L766 14677L754 14690L769 14701L753 14703L746 14714L753 14737L744 14745L721 14748L711 14774L688 14798L703 14807L701 14821L672 14823L649 14842L663 14885L659 14893L649 14896L631 14878L605 14899L609 14909L621 14893L630 14899L612 14915L621 14931L613 14949L621 14972L607 14988L563 14981L558 14999L530 15012L529 15025L550 15035L554 15055L550 15064L522 15071L514 15089L520 15097L543 15096L549 15103L531 15112L535 15136L517 15144L499 15163L517 15215L504 15219L498 15230L504 15249L496 15275L464 15312L460 15280L446 15264L423 15278L353 15278L291 15245L286 15229L319 15211L329 15197L318 15191L280 15192L260 15228L251 15234L242 15231L234 15215L236 15191L263 15143L257 15135L227 15144L215 15135L233 15114L241 15061L213 15032L227 15001L221 14995L197 14997L178 14951L177 14940L194 14920L193 14895L175 14885L122 14889L88 14888L85 14842L75 14820L79 14793L87 14784L108 14780L140 14794L151 14785L148 14755L114 14732L132 14698L160 14669L168 14606L195 14559L181 14515L203 14500L233 14512L240 14505L251 14453L242 14441L222 14429L233 14364L223 14329L199 14291L211 14247L200 14234L189 14194L228 14158L226 14140L187 14095L200 14043L176 14033L130 14035L114 14002L129 13974L129 13908L147 13873L135 13846L153 13761L152 13728L114 13689L113 13670L132 13638L119 13621L123 13581L174 13533L178 13496L151 13455L169 13429L206 13406L209 13369L156 13329L122 13326L115 13319L111 13251L86 13208L72 13138L59 13116L43 13081L44 13065L102 13004L139 12988L160 12957L163 12939L162 12896L158 12856L171 12836L172 12789L147 12766L123 12770L55 12761L6 12678L18 12628L9 12602L9 12547L3 12525L9 12476L34 12427L30 12370L63 12325L76 12289L73 12262L90 12227L94 12215L129 12196L147 12175L175 12087L179 12044L164 12013L167 11982L158 11917L170 11865L192 11861L199 11854L213 11809L252 11780L268 11743L264 11695L252 11673L252 11614L237 11577L247 11547L221 11482L243 11446L285 11411L288 11379L277 11355L249 11339L243 11289L264 11254L263 11232L273 11220L291 11220L304 11211L306 11184L346 11116L331 11078L333 11051L315 11020L312 10984L281 10960L280 10932L322 10901L332 10871L360 10835L399 10833L412 10823L424 10775L447 10738L441 10695L457 10666L453 10625L479 10606L486 10606L511 10603L522 10592L513 10569L511 10550L513 10538L539 10425L590 10398L604 10366L637 10344L650 10328L637 10283L674 10192L690 10125L720 10067L722 10041L713 9992L707 9967L692 9959L689 9945L702 9886L730 9839L767 9807L777 9772L806 9740L861 9710L880 9689L897 9651L904 9601L930 9561L928 9530L951 9489L957 9437L998 9363L1034 9328L1031 9312L1036 9303L1050 9290L1056 9247L1078 9203L1089 9139L1162 9047L1167 9021L1183 9013L1185 8971L1205 8931L1207 8877L1234 8860L1245 8837L1270 8811L1270 8768L1278 8749L1306 8715L1296 8676L1269 8641L1269 8633L1282 8624L1274 8603L1274 8575L1305 8488L1354 8426L1367 8385L1377 8372L1374 8295L1383 8252L1389 8240L1409 8205L1446 8188L1474 8163L1496 8094L1552 8088L1597 8028L1669 7975L1673 7958L1664 7934L1690 7915L1749 7822L1758 7791L1782 7746L1783 7722L1798 7683L1896 7588L1920 7553L1942 7506L1974 7473L1993 7442L2025 7428L2114 7343L2200 7324L2257 7323L2298 7309L2313 7277L2340 7248L2352 7233L2395 7154L2503 7016L2519 6979L2539 6928L2554 6911L2579 6857L2662 6793L2676 6760L2682 6727L2697 6727L2694 6717L2700 6716L2706 6729L2715 6726L2713 6717L2728 6724L2757 6720L2771 6723L2772 6735L2776 6732L2781 6743L2796 6743L2808 6771L2804 6774L2811 6778L2804 6786L2812 6797L2816 6793L2835 6802L2830 6804L2834 6833L2845 6837L2840 6844L2848 6844L2850 6858L2864 6859L2866 6865L2860 6868L2865 6874L2873 6874L2874 6867L2884 6882L2891 6877L2893 6897L2903 6903L2905 6917L2930 6942L2952 6987L2990 7026L2987 7038L2994 7059L3012 7079L3026 7137L3023 7148L3035 7169L3026 7223L2994 7255L2988 7288L2992 7304L2971 7331L2943 7351L2970 7381L2978 7406L3026 7416L3025 7444L3040 7481L3037 7514L3064 7515L3093 7497L3113 7497L3142 7520L3183 7536L3213 7566L3230 7568L3235 7580L3250 7590L3256 7612L3251 7615L3260 7620L3274 7613L3292 7617L3306 7637L3339 7645L3357 7665L3391 7664L3407 7673L3423 7714L3438 7728L3467 7727L3473 7746L3488 7753L3495 7744L3533 7746L3546 7758L3555 7759L3607 7776L3618 7788L3664 7764L3727 7759L3744 7765L3759 7760L3779 7775L3794 7798L3806 7794L3812 7782L3839 7777L3852 7784L3859 7790L3863 7862L3867 7867L3886 7861L3899 7885L3914 7891L3923 7906L3927 7927L3923 7959L3912 7985L3929 7986L3949 8015z" />
</g>
</svg>