<?xml version="1.0"?>
<svg xmlns="http://www.w3.org/2000/svg" version="1.2" baseProfile="tiny" width="300" height="490" viewBox="0 0 800 1315"  stroke-linecap="round" stroke-linejoin="round" stroke="#ffffff" fill="#AAAAAA">
<g id="RSaude">
<path id="Amor Perfeito" d="M 301.82 924.55 299.64 922.34 300.1 914.07 297 910.6 297.46 906.31 294.91 900.37 292.72 899.01 277.15 898.82 274.79 889.72 273.27 888.92 275.38 887.21 282.24 885.68 283.11 882.75 281.46 879.62 283.03 875.6 282.09 872.76 282.93 870.57 287.19 867.77 289.1 867.39 291.2 868.86 293.1 867.88 294.63 864.62 298.05 863.11 299.7 856.61 306.86 852.02 306.23 849.35 307.89 842.49 306.77 839.97 313.26 838.17 314.98 834.34 313.82 832.56 314.74 830.99 323.19 828.91 322.92 827.51 324.67 827.54 324.6 825.11 324.96 826 327.02 824.15 330.11 823.98 330.54 821.44 335.73 819.73 336.66 816.95 339.07 817.81 340.66 816.47 339.3 813.79 340.25 811.02 336.91 808.98 333.28 804.15 330.2 804.72 326.96 801.03 325.49 800.86 325.98 798.54 324.14 795.58 328.77 780.04 331.26 778.12 333.67 778.66 334.34 776.74 336.15 777.69 337.61 775.31 340.3 775.45 340.14 773.4 342.34 772.12 343.55 769.39 346.21 771.68 352.5 770.64 354.56 772.44 358.2 769.97 361.38 770.6 363.19 768.44 365.58 768.28 372.63 773.5 378.14 773.91 374.01 778.33 368 797.65 369.75 801 373.43 802.18 374.39 803.82 371.11 812.2 370.45 823.8 371.47 825.95 377.17 830.32 393.01 830.44 397.46 826.78 405.11 825.14 410.12 837.86 421.81 838.18 424.99 834.81 427.33 827.47 430.54 828.42 435.33 823.13 437.62 817.87 442.93 815.55 446.65 812.08 448.12 814.47 452.54 815.93 454.63 815.61 455.29 814 457.79 814.52 455.86 817.59 456.05 824.32 459.91 825.69 462.87 829.91 470.27 829.8 471.04 831.21 474.04 831.16 474 832.12 478.67 829.01 483.09 829.46 488.35 827.63 490.91 829.55 491.34 828.51 493.31 828.76 495.64 831.64 501.07 830.04 503.49 832.06 507.73 832.56 510.61 835.22 510.73 837 512.39 836.41 512.1 837.73 514.63 838.28 517.38 845.39 518.98 845.76 521.17 850.3 523.17 847.9 525.21 848.67 530.06 846.58 545.25 835.09 547.65 832.9 547.42 829.69 556.56 826.94 559.67 829.73 569.8 828.15 573.33 825.85 574.49 821.72 576.98 819.44 578.38 823.74 581.54 822.23 585.46 815.59 588.02 817.81 587.63 814.52 589.97 814 589.53 810.52 590.83 809.92 590.65 808.63 592.04 807.84 594.99 808.94 596.77 807.49 596.84 806.11 593.9 804.19 599.3 797.94 601.48 793.26 603.08 794.51 604.78 793.29 608.72 796.13 615.31 795.99 618.72 794.52 622.2 790.76 627.03 791.17 628.39 789.5 629.72 790.38 631.81 788.89 643.78 791.13 645.91 794.96 648.87 796.28 649.62 798.51 653 799.84 653.65 798.93 655.55 801.48 656.69 799.39 658.93 800.11 662.27 799.43 664.66 797.43 668.32 797.16 673.19 798.32 675.79 797.67 682.39 799.83 689.01 798.92 692.94 800.73 696.55 798.56 700.14 798.19 704.85 801.83 706.66 801.37 709.73 796.58 716.68 796.36 717.91 797.45 720.62 794.34 725.23 799.11 729.95 798.03 735.67 799.07 746.51 793.25 747.78 794.4 749.49 805.05 746.99 809.23 747.88 810.7 751.48 812.33 751.88 815.5 754.3 816.98 754.31 819.97 756.03 822.18 765.55 824.1 769.31 819.25 764.81 814.85 767.8 807.2 771.91 804.95 784.1 807.74 793.58 801.55 794.69 798.15 793.39 792.63 794.72 790.2 798.62 793.76 799 806.47 794.68 814.83 783.4 816.53 779.75 837.86 771.89 845.01 762.66 847.91 741.84 860.34 731.31 863.55 727.77 865.99 726.02 869.72 727.66 874.8 725.32 879.69 720.45 883.29 718.82 892.03 715.62 889.25 710.23 893.86 709.16 913.28 697.4 913.95 663.94 965.58 657.01 962.7 654.63 963.11 650.23 959.58 643.55 957.37 642.08 954.44 643.17 951.17 641.06 945.32 638.96 943.28 633.45 942.87 630.41 939.23 627.63 939.59 625.33 937.8 622.88 938.87 619.54 938.01 616.37 941.4 607.49 942.92 605.61 944.9 597.68 947.78 595.97 949.48 592.76 949.22 592.08 948 590.01 949.21 584.48 944.57 582.49 945.28 578.77 943.15 576.18 940.05 572.67 940.05 569.92 933.84 568.02 932.75 567.87 930.41 562.54 929.59 561.93 927.65 558.21 927.5 558.15 924.68 556.53 925.08 554.04 922.96 552.54 924.18 551.49 920.15 546.36 921.61 545.41 923.19 542.8 921.79 542.67 923.47 541.21 922.98 540.27 924.46 541.57 932.61 539.36 937.18 542.89 942.77 543.48 948.48 539.64 951.66 536.83 952.36 534.21 956.98 535.69 957.75 533.72 962.09 531.44 964.78 527.76 966.26 530.45 967 528.71 973.88 525.53 979.5 520.26 985.2 519.57 986.78 520.5 987.61 518.86 988.34 518.2 990.61 519.01 992.27 516.93 993.62 516.69 997.06 518.43 1000.47 517.54 1005.66 520.22 1006.86 519.69 1008.96 522.63 1008.94 526.23 1012.8 525.01 1016.06 524.09 1015.89 524.5 1018.26 521.82 1021.34 524.9 1025.27 522.97 1029.92 523.39 1032.96 522.2 1032.85 522.79 1034.66 521.13 1034.4 520.58 1036.06 524.45 1043.7 523.9 1044.73 526.36 1047.98 524.12 1048.52 523.22 1054.01 519.47 1056.61 519.71 1057.87 517.78 1056.6 512.18 1057.41 512.17 1059.67 510.12 1060.18 510.59 1061.95 507.7 1061.91 505.65 1066.14 505.76 1067.7 510.85 1068.65 513.62 1070.76 514.91 1074.58 518.56 1076.3 522.27 1080.29 522.51 1082.52 518.18 1091.62 517.8 1100.44 516.44 1102.78 516.79 1108.08 515.48 1108.53 514.91 1111.27 511.98 1111.41 509.81 1109.02 505.17 1108.29 503.31 1111.96 497.3 1115.46 497.1 1112.31 493.22 1110.87 489.49 1102.61 486.38 1104.21 480.59 1104.33 478.65 1106.04 476.18 1104.2 469.8 1102.92 466.67 1105.97 465.83 1101.9 472.84 1094.87 472.17 1088.16 470.88 1089.7 464.44 1092.02 461.69 1094.85 460.47 1094.54 457.91 1090.43 457.18 1086.39 455.17 1085.73 459.73 1074.19 457.43 1071.95 458.55 1068.62 455.5 1062.29 451.99 1060.37 443.84 1058.77 440.39 1055.77 437.2 1055.22 434.98 1053.18 435.73 1050.74 432.84 1049.12 433.59 1047.08 431.65 1046.37 428.35 1048.21 428.7 1047.44 425.5 1045.84 422.57 1046.1 422.24 1042.83 419.13 1041.24 420.74 1037.52 413.14 1035.76 410.67 1033.07 412.07 1028.55 409.24 1027.37 410.46 1026.81 410.06 1024.31 406.52 1017.69 403.91 1015.09 400.13 1016.43 396.9 1013.88 394.98 1010.19 389.69 1008.2 387.63 1001.03 381.76 998.48 378.3 994.48 380.94 991.34 375.54 986.16 373.78 981.52 371.8 981.86 367.42 979.85 362.49 971.27 358.04 982.33 353.28 985.63 349.09 984.24 348.16 978.9 344.47 972.06 342.58 971.63 339.69 967.3 335.26 967.72 332.49 959.37 331.83 955.13 332.74 953.46 330.99 952.39 326 953.69 324.8 951.38 321.43 949.61 322.67 945.27 321.78 943.37 318.55 946.86 317.62 945.61 316.22 946.1 314.18 943.22 309.99 945.36 307.79 943.46 306.4 943.99 305.79 941.9 303.59 940.71 299.44 940.68 299.22 939.15 303.37 932.73 302.82 929.15 301.82 924.55 Z"/>
<path id="Médio Norte Araguaia" d="M 375.55 187.42 379.97 188.92 381.85 192.14 380.73 193.31 381.21 195.24 382.8 194.56 384.45 197.1 386.48 196.12 387.18 199.02 388.85 199.92 388.41 203.38 390.37 203.78 392.29 201.81 393.57 203.22 395.94 202.62 396.63 204.86 399.15 206.63 400.93 203.99 403.01 207.51 404.94 208.43 406.21 212.47 409.34 213.05 410.88 215.62 412.56 215.94 414.92 220.48 413.69 224 415.76 226.56 418.92 225.6 425.63 228.1 428.41 227.8 433.7 222.1 456.63 218.13 455.36 225.37 461.07 224.22 471.25 234.36 470.49 239.27 473.52 238.55 474.94 240.74 479.11 242.34 480.85 244.53 483.17 243.94 487.11 245.35 494.98 243.51 500.48 245.01 503.3 243.67 508.55 244.41 511.92 246.82 514.67 242.86 515 251.99 511.43 257.59 509.38 264.1 512.96 270.52 513.1 275.13 509.39 282.23 509.5 287.17 506.96 292.79 495.33 305.19 493.9 310.01 491.21 313.49 488.69 314.72 481.67 312.27 475.28 316.48 474.44 320.75 475.51 323.73 483.85 328.47 491.13 339.05 493.97 338.36 497.08 333.82 499.53 332.54 507.72 332.82 514.11 337.26 517.52 344.05 516.31 348.85 512.52 351.77 501.81 356.6 499.78 360.52 504.06 361.96 509.45 359.26 513.33 359.85 514.4 366.58 517.19 368.63 518 375.15 520.23 372.83 525.67 374.08 525.89 376.49 523.65 378.77 530.12 380.81 529.24 383.66 532.73 385.69 531.91 391.25 532.97 394.42 535.42 394.53 537.46 393.11 534.19 389.71 536.26 388.25 543.34 395.12 539.76 396.3 540.74 399.18 545.32 399.78 545.3 401.83 543.19 401.75 544.79 403.64 543.34 404.22 543.47 406.12 545.06 407.13 546.78 405.93 548.5 407.05 549.91 406.43 549.86 408.68 552.12 408.51 550.99 411.21 554.23 410.77 552.84 411.82 555.08 416.39 554.1 417.48 555.99 417.98 554.12 418.8 554.43 419.79 556.85 419.97 556.08 421.12 560.5 422.82 562.1 425.13 563.57 424.16 563.58 426.48 565.58 426.25 564.71 427.12 565.46 428.58 568.55 432.17 570.6 432.34 570.87 437.16 573.97 436.63 574.76 439.31 576.23 439.01 574.86 441.48 575.43 442.52 577.06 441.79 576.32 444.12 577.73 445.83 576.35 447.52 579.96 447.14 583.34 449.78 583.86 453.38 586.32 457.46 591.85 458.82 592.87 458.1 593.61 459.61 594.91 456.55 599.09 455.23 600.58 450.03 602.48 448.48 605.64 448.24 606.13 446.09 609.63 446.91 613.34 441.95 614.36 444.13 615.68 442.46 618.53 443.52 622.63 441.29 627.15 441.41 629.87 438.79 630.65 439.29 631.79 436.69 636.48 436.88 639.34 434.73 641.15 435.82 644.91 435.44 646.92 433.25 648.49 434.56 653.4 432.63 656.97 433.05 662.46 436.41 664.5 440.99 669.37 442.5 673.5 445.92 675.98 450.91 675.78 457.21 677.68 460.11 677.01 462.38 674.04 464.44 669.92 475.62 670.5 477.67 674.3 480.6 671.09 485.88 671.13 491.82 669.56 494.66 665.34 499.54 663.02 500.43 655.43 500.94 651.37 499.4 644.12 502.22 639.38 504.81 636.23 510.11 633.24 508.26 630.99 508.85 627.63 507.21 626.16 510.07 626.91 512.12 625.64 513.03 623.72 512.33 625.57 517 624.77 520.82 621.14 524.05 618.44 522.64 616.64 524.57 617.55 533.46 611.61 532.64 609.72 530.68 601.63 528.39 600.46 526.61 599.49 528.03 590.66 527.44 588.36 528.5 585.96 527.15 582.84 522.38 580.37 524.12 578.3 524.39 576.61 522.82 576.18 524 573.46 521.79 572.98 518.03 569.39 516.18 566.82 511.17 563.5 514.88 560.83 515.71 562.01 516.5 559.22 519.29 560.35 519.37 560.08 521.75 558.6 521.74 557.08 523.99 555.02 524.04 554.99 525.94 551.21 522.73 546.27 520.77 544.67 521.58 544.45 523.69 542.55 524.45 540.79 523.77 539.25 525.05 537.98 523.04 534.75 525.17 531.24 525.54 529.36 524.36 528.59 526.08 526.23 525.28 523.56 527.03 517.69 525.83 514.57 521.2 509.39 522.18 508.31 524.95 507.38 523.11 505.95 523.79 503.67 522.37 502.02 519.89 495.83 518.01 494.44 518.76 494.13 517.74 491.16 520.17 482.76 521.65 479.6 520.34 471.92 510.55 467.35 510.28 468.8 506.14 467.61 503.63 462.98 503.01 465.19 500.1 460.77 500.74 461.26 494.62 458.42 494.37 458.86 491.84 454.86 487.87 456.48 484.6 455.25 483.94 454.03 485.79 451.56 484.78 451.2 482.38 453.05 482.54 453.24 480.83 451.58 477.42 449.1 476.86 450.87 473.99 450.34 471.24 451.73 470.21 450.88 463.49 453.33 460.74 451.06 458.68 452.85 456.9 451.67 453.4 452.43 451.34 449.49 451.09 450.73 446.14 446.87 446.06 446.39 443.78 444.7 442.59 445.7 441.02 443.43 440.21 444.95 438.2 442.14 437.21 444.78 433.39 444.59 428.77 448.48 425.32 450.26 417.27 461.9 411.94 458.72 410.8 460.39 407.24 454.93 405.42 455.44 403.87 453.83 403.02 452.24 398.33 451.14 399.12 450.66 397.63 448.35 397.31 447.82 395.11 443.07 393.85 443.67 392.31 441.99 391.09 440.27 391.76 438.41 390.57 438.84 389.82 437.65 390 437.56 386.24 429.54 384.04 428.26 381.58 421.12 377.28 419.3 377.68 415.44 374.9 410.84 374.41 409.84 377.7 412.42 381.61 410.96 384.58 411.08 388.44 407.34 394.46 402.74 396.62 404.6 403.5 407.57 404.74 408.44 409.25 412.7 413.62 412.67 419.22 410.51 420.81 410.79 422.62 408.5 422.68 407.55 420.91 404.75 419.94 399.84 421.89 392.05 418.83 391.84 416.87 389.54 415.34 378.58 417.45 377.99 416.19 374.26 415.05 372.63 416.74 369.57 417.34 369.78 418.4 367.02 420.47 365.06 423.67 365.55 427.72 356.09 425.67 355.99 419.97 354.13 417.1 352.96 407.47 350 406.96 345.01 397.73 339.98 395.7 339.46 391.2 337.02 389.29 330.45 389.55 326.05 383.29 323.24 382.62 319.78 383.63 319.1 382.62 315.64 386.29 313.48 386.59 311.79 386.18 311.36 383.55 307.88 381.04 301.27 383.25 295.72 382.2 285.37 383.88 284.14 386.3 282.06 385.02 279.75 386.57 277.42 385.34 277.23 386.43 272.5 387.17 271.09 388.89 256.44 385.44 252.93 387.93 251.84 386.49 247.83 387.78 245.57 386.82 243.57 388.37 240.67 386.8 237.81 387.8 237.21 389.59 235.35 389.07 234.58 391.03 230.04 391.89 227.9 394.13 226.58 393.16 222.62 394.76 216.3 380.81 216.87 369.31 240.06 342.31 247.62 326.63 246.02 311.31 246.34 298.82 242.28 284.68 243.53 278.97 249.48 273.83 258.45 270.2 269.76 261.63 273.7 256.63 281.16 256.18 290.32 252.39 299.92 251.08 304.25 251.96 309.5 250.22 313.23 248.17 318.33 242.17 326.29 240.12 329.73 237.42 331.77 233.81 329.97 220.81 333.03 212.35 337.91 204.35 349.4 195.98 355.78 188.09 367.29 188.92 373.79 192.71 375.55 187.42 Z"/>
<path id="Sudeste" d="M 542.89 942.77 539.36 937.18 541.57 932.61 540.27 924.45 541.35 922.89 542.73 923.41 542.74 921.79 545.2 923.23 545.69 921.96 551.2 920.04 552.54 924.18 554.04 922.96 556.53 925.08 558.15 924.68 558.21 927.5 561.93 927.65 562.54 929.59 567.87 930.41 568.02 932.75 569.92 933.84 572.67 940.05 576.18 940.05 578.77 943.15 582.49 945.28 584.48 944.57 590.01 949.21 592.08 948 592.76 949.22 595.97 949.48 597.68 947.78 605.61 944.9 607.49 942.92 616.37 941.4 619.54 938.01 622.88 938.87 625.33 937.8 627.63 939.59 630.41 939.23 633.45 942.87 638.96 943.28 641.06 945.32 643.17 951.17 642.08 954.44 643.55 957.37 650.23 959.58 654.63 963.11 657.01 962.7 663.94 965.58 660.1 980.63 661.65 982.45 667.26 982.87 668.52 996.94 681.79 1006 696.36 1003.74 711.82 1008.5 718.33 1016.2 734.95 1019.78 738.66 1022.32 728.59 1022.37 728.23 1025.67 726.58 1026.67 715.9 1024.8 712.79 1019.35 708 1019.63 706.07 1021.02 703.3 1019.5 701.06 1019.82 699.93 1018.45 700.18 1019.71 698.43 1020.51 698.02 1019.68 696.76 1021.56 694.53 1020.54 693.58 1021.74 692.28 1021.04 691.71 1023.04 690.55 1022.5 690.52 1024.05 688.84 1025.25 691.37 1025.69 694.21 1023.43 696.38 1024.27 696.13 1025.17 697.62 1024.78 697.05 1027.24 698.6 1028.05 697.89 1029.89 701.34 1030.46 702.76 1032.19 700.57 1035.51 698.67 1035.95 700.54 1036.47 698.24 1038.69 698.17 1040.6 695.94 1040.35 694.85 1041.51 693.7 1040.61 691.55 1042.01 692.1 1045.19 697.07 1043.85 694.34 1046.83 699.55 1045.63 696.31 1047.92 697.18 1048.86 696.32 1049.69 698.39 1049.6 697.98 1052.39 694.7 1052.14 695.98 1056.07 694.88 1056.62 692.57 1054.9 691.14 1056.12 691.13 1060.78 692.8 1064.33 694.17 1064.79 693.78 1063.98 695.59 1063.5 699.96 1067.41 705.88 1067.51 706.79 1068.86 710.13 1067.68 712.26 1069.03 720.58 1066.63 722.96 1067.1 721.13 1069.21 714.57 1071.75 701.53 1072.62 693.72 1078.76 693.92 1080.27 692.08 1080.62 692.31 1081.6 690.18 1081.37 688.12 1085.73 686.85 1083.31 684.15 1084.67 684.55 1086.51 681.05 1085.94 675.53 1089.29 678.19 1089.02 680.47 1090.51 684.67 1089.95 685.18 1088.62 690.62 1089.99 688.79 1091.54 690.44 1091.53 690.9 1095.08 688.38 1096.27 692.72 1097.58 692.66 1101.3 690.76 1103.12 689.95 1106.53 687.13 1106.64 691.15 1110.45 686.54 1113.22 691.73 1112.9 692.42 1114.01 690.78 1115.43 693.69 1116.13 692.8 1118.79 690.05 1120.5 692.97 1124.12 690.41 1126.27 690.55 1128.74 696.93 1129.71 695.36 1130.33 695.06 1134.36 692.99 1135.19 691.73 1137.61 697.68 1137.41 694 1139.87 701.86 1138.31 705.58 1141.39 703.97 1141.44 704.65 1143.25 700.05 1146.27 699.66 1148.11 697.59 1147.37 699.26 1150.64 697.56 1153.36 699.87 1155.31 701.52 1155.12 701.97 1152.73 703.98 1151.11 702.39 1149.78 704.2 1149.9 703.2 1147.76 704.51 1148.69 705.49 1147.71 706.3 1150.17 706.81 1147.61 707.56 1149.79 708.75 1149.91 706.9 1151.61 707.1 1154.53 709.7 1154.61 708.32 1156.59 710.15 1156.77 710.07 1160.39 708.31 1163.21 711.47 1162.38 711.76 1161.25 717.56 1160.64 720.09 1161.53 715.94 1165.43 708.27 1168.85 709.15 1169.38 708.11 1170.03 708.47 1171.99 705 1173.41 704.35 1170.92 702.78 1173.05 707.81 1175.84 702.33 1183.48 707.72 1183.21 707.38 1184.63 709.14 1184.7 709.69 1185.95 703.08 1190.73 703.33 1192.06 705.29 1192.4 703.33 1194.91 705.18 1193.74 709.03 1195.1 708.14 1198.69 705.99 1198.7 706.33 1200.4 704.63 1199.62 704.62 1202.49 706.83 1202.57 706.85 1203.75 704.2 1204.42 702.07 1208.08 705.31 1207.78 703.9 1210.19 707.28 1210.17 708.17 1213.36 703.19 1219.24 704.71 1219.45 705.82 1221.46 704.72 1222.78 706.04 1223.15 701.97 1225.97 703.11 1228.37 701.45 1229.92 703.04 1230.37 699.22 1233.34 705.85 1232.55 709.45 1230.32 718.92 1232.2 725.6 1227.99 727.79 1229.41 731.41 1226.15 733.5 1227 727.87 1230.04 723.45 1230.46 720.67 1233.15 713.09 1233.79 693.81 1238.64 692.37 1237.6 693.18 1235.66 691.81 1234.21 694.37 1225.58 693.18 1224.67 694.17 1222.67 693.29 1222.23 693.51 1218.62 691.91 1216.31 686.84 1215.61 685.37 1212.08 682.97 1229.05 680.87 1229.92 679.51 1235.44 632.67 1235.13 621.73 1240.4 621.86 1242.22 620.45 1242.64 617.34 1248.53 616.15 1248.81 616.22 1250.65 613.96 1250.85 612.15 1249.39 612.34 1247.73 610.15 1248.43 604.45 1253.15 604.42 1254.7 596.59 1259.24 596.55 1260.82 595.21 1259.28 593.02 1259.21 590.13 1263.07 580.41 1265.63 580.52 1268.18 579.38 1268.87 577.8 1267.18 576.53 1268.75 575.96 1267.07 572.22 1268.25 570.99 1269.68 572.02 1270.04 571.8 1272.15 568.98 1273.22 564.21 1272.55 565.47 1270.88 564.26 1269.77 557.08 1270.75 556.48 1272.38 553.39 1273.61 553.92 1276.41 550.81 1277.72 550.88 1279.27 548.55 1281.92 546.59 1279.39 542.09 1280.87 539.77 1278.98 537.43 1279.37 533.52 1276.31 530.79 1279.03 531.1 1281.51 527.34 1282.77 525.62 1285.99 523.92 1284.15 524.38 1282.44 521.18 1279.46 524.95 1277.66 524.24 1275.93 516.11 1274.85 517.41 1269.3 512.51 1270.04 510.29 1268.79 507.52 1270.44 504.09 1269.15 503.23 1263.66 504.18 1259.41 495.4 1256.57 493.88 1257.48 492.83 1256.32 490.22 1261.1 491.2 1263.71 487.17 1266.63 489.49 1268.15 487.82 1271.13 488.57 1272.81 487.34 1273.13 487.76 1274.6 489.6 1274.86 489.16 1277.14 490.86 1278.29 491.84 1281.65 489.26 1283.81 488.4 1288.08 490.31 1295.58 492.35 1297.72 494.65 1298.17 493.95 1300.82 492.09 1301.87 486.25 1311.08 485.75 1314 463.24 1289.46 453.37 1290.71 451.85 1288.61 450.43 1289.34 449.46 1287.3 445.09 1286 443.84 1288.58 440.28 1289.88 437.03 1283.81 431.1 1284.18 429.76 1283.35 429.7 1280.19 426.64 1280.48 426.24 1277.81 425.06 1277.25 422.42 1278.44 423.5 1282.35 422.7 1282.16 421.81 1285.69 416.22 1286 412.07 1288.32 410.21 1287.95 410.01 1289.13 408.07 1287.36 410.62 1284.18 410.18 1279.6 408.25 1278.55 410.68 1274.76 408.82 1269.52 412.21 1264.13 412.93 1259.06 414.77 1256 410.92 1249.31 411.37 1240.91 412.8 1238 408.4 1232.58 405.45 1226.17 404.82 1220.58 397.03 1209.32 396.84 1206.51 399.38 1200.06 396.09 1198.92 393.71 1200.01 392.37 1198.95 392.6 1196.51 396.32 1193.32 396.93 1189.61 391.22 1189.78 388.9 1186.44 392.06 1181.88 391.55 1176.74 395.15 1175.91 388.52 1170.5 398.14 1167.34 397.9 1160.74 401.76 1158.56 402.2 1156.76 401.46 1155.18 393.44 1154.84 393.64 1150.6 398.84 1143.65 397.77 1140.91 394.67 1138.25 394.46 1131.21 385.46 1124.41 389.4 1120.38 390.33 1117.01 389.3 1114.93 392.26 1114.24 393.78 1109.02 396.78 1109.17 400.16 1107.05 400.3 1108.44 403.62 1109.51 404.21 1110.91 408.24 1111.08 409.96 1114.66 411.27 1112.91 410.38 1110.9 411.07 1107 415.46 1103.19 417.2 1103.68 417.17 1106 419.31 1102.71 416.11 1100.17 416.8 1095.46 422.49 1093.26 424.65 1090.18 429.05 1091.86 429.76 1087.79 434.28 1088.9 436.76 1091.6 438.46 1090.28 442.48 1090.84 444.3 1089.88 447.23 1092.62 449.27 1092.45 449.79 1094.87 453.95 1096.16 455.94 1101 458.79 1100.36 457.89 1106.49 460.01 1108.36 457.88 1114.47 454.17 1116.1 453.45 1119.72 457.71 1115.94 463.93 1115.87 464.71 1108.55 469.8 1102.92 476.18 1104.2 478.65 1106.04 480.59 1104.33 486.38 1104.21 489.49 1102.61 493.22 1110.87 497.1 1112.31 497.3 1115.46 503.31 1111.96 505.17 1108.29 509.81 1109.02 511.98 1111.41 514.97 1111.23 515.48 1108.53 516.79 1108.08 516.44 1102.78 517.8 1100.44 518.18 1091.62 522.51 1082.52 522.27 1080.29 518.56 1076.3 514.91 1074.58 513.62 1070.76 510.85 1068.65 505.76 1067.7 505.65 1066.14 507.7 1061.91 510.59 1061.95 510.12 1060.18 512.17 1059.67 512.18 1057.41 517.78 1056.6 519.71 1057.87 519.47 1056.61 523.22 1054.01 524.12 1048.52 526.37 1047.93 523.9 1044.73 524.45 1043.7 520.58 1036.06 521.13 1034.4 522.79 1034.66 522.2 1032.85 523.39 1032.96 522.97 1029.92 524.9 1025.27 521.82 1021.34 524.5 1018.26 524.09 1015.89 525.01 1016.06 526.23 1012.8 522.63 1008.94 519.69 1008.96 520.22 1006.86 517.54 1005.66 518.43 1000.47 516.69 997.06 516.93 993.62 519.01 992.27 518.2 990.61 518.86 988.34 520.5 987.61 519.57 986.78 520.26 985.2 525.53 979.5 528.71 973.88 530.45 967 527.76 966.26 531.44 964.78 533.72 962.09 535.69 957.75 534.21 956.98 536.83 952.36 539.64 951.66 543.43 948.31 542.89 942.77 Z"/>
<path id="Bico do Papagaio" d="M 508.55 244.41 503.3 243.67 500.48 245.01 494.93 243.51 491.71 244.88 490.21 243.83 489.93 244.85 484.39 245.12 483.19 243.94 480.59 244.38 472.85 238.26 470.51 239.29 471.25 234.36 461.07 224.22 455.36 225.37 456.79 218.16 433.7 222.1 428.41 227.8 425.63 228.1 418.92 225.6 415.76 226.56 413.69 224 414.92 220.48 413.17 216.8 409.34 213.05 406.21 212.47 404.94 208.43 403.01 207.51 400.93 203.99 399.15 206.63 396.63 204.86 395.94 202.62 393.57 203.22 392.29 201.81 390.37 203.78 388.41 203.38 389.08 200.45 387.18 199.02 386.61 196.26 384.22 197.06 382.8 194.56 381.21 195.24 380.73 193.31 381.85 192.14 380.16 189.05 375.55 187.42 374.62 184.55 368.93 179.81 369.63 177.07 365.92 162.3 370.34 156.84 383.59 153.56 389.36 148 389.55 142.97 387.16 140.05 381.91 138.22 381.97 133.24 386.35 128.59 397.37 125.07 398.64 121.56 396.97 117.41 388.74 106.75 387.47 99.14 388.5 93.21 391.31 89.3 400.12 89.56 407.1 87.05 413.65 74.89 413.08 69.71 401.3 62.04 393.56 61.07 387.36 57.1 383.02 52.93 379.3 42.05 374.06 36.73 371.42 38.18 361.42 39.59 355 42.29 346.71 40.29 340.51 41.21 335.38 39.23 332 35.26 318.33 33.52 316.37 32.48 315.44 29.6 322.25 30.21 324.29 25.01 327.42 22.74 331.85 23.63 335.23 27.04 339.02 27.6 344.97 19.12 346.15 10.78 350.59 5.8 377.36 1 384.16 6.22 388.51 6.64 397.77 10.48 406.69 15.62 422.4 17.88 427.15 16.46 434.3 11.48 446.32 12.53 455.06 17.45 455.9 28.6 462.24 35.52 475.41 34.5 487.68 41.09 495.3 47.09 501.33 48.72 504.54 47.64 506.39 48.84 514.05 57.51 516.72 63.73 518.24 79.09 515.17 86.69 515.12 89.94 522.47 104.05 524.89 111.37 525.23 121.82 522.31 131.46 525.46 138.77 524.66 150.31 526.23 157.91 532.21 169.02 533.5 174.77 528.54 184.47 528.32 191.05 524.49 200.78 527.26 209.4 520.96 217.72 520.36 221.18 519.89 228.61 514.74 237.6 515.14 241.69 512.05 246.75 508.55 244.41 Z"/>
<path id="Ilha do Bananal" d="M 303.59 940.71 305.79 941.9 306.4 943.99 307.79 943.46 309.99 945.36 314.39 943.29 316.22 946.1 317.62 945.61 318.55 946.86 321.78 943.37 322.67 945.27 321.43 949.61 324.8 951.38 326 953.69 330.99 952.39 332.74 953.46 331.83 955.13 332.49 959.37 335.26 967.72 339.69 967.3 342.58 971.63 344.47 972.06 348.16 978.9 349.27 984.33 353.28 985.63 358.04 982.33 362.49 971.27 367.42 979.85 371.8 981.86 373.78 981.52 375.54 986.16 380.94 991.34 378.3 994.48 381.76 998.48 387.63 1001.03 389.69 1008.2 394.98 1010.19 396.9 1013.88 400.13 1016.43 403.91 1015.09 406.52 1017.69 410.06 1024.31 410.46 1026.81 409.24 1027.37 412.07 1028.55 410.67 1033.07 413.14 1035.76 420.74 1037.52 419.13 1041.24 422.24 1042.83 422.57 1046.1 425.5 1045.84 428.7 1047.44 428.35 1048.21 431.65 1046.37 433.59 1047.08 432.84 1049.12 435.73 1050.74 434.98 1053.18 437.2 1055.22 440.39 1055.77 443.84 1058.77 451.99 1060.37 455.5 1062.29 458.55 1068.62 457.43 1071.95 459.73 1074.19 455.17 1085.73 457.18 1086.39 457.91 1090.43 460.49 1094.58 461.69 1094.85 464.44 1092.02 470.88 1089.7 472.16 1088.11 472.84 1094.87 465.83 1101.9 466.88 1105.17 464.54 1108.94 464.85 1114.54 463.02 1116.37 457.71 1115.94 453.45 1119.72 454.17 1116.1 457.88 1114.47 460.1 1107.95 457.89 1106.49 459.1 1100.9 455.19 1100.44 455.47 1097.8 453.65 1095.89 449.79 1094.87 449.27 1092.45 447.23 1092.62 444.3 1089.88 442.48 1090.84 438.46 1090.28 436.76 1091.6 434.28 1088.9 429.76 1087.79 429.05 1091.86 424.65 1090.18 422.49 1093.26 416.8 1095.46 416.11 1100.17 419.31 1102.71 417.17 1106 417.2 1103.68 415.46 1103.19 411.07 1107 410.38 1110.9 411.27 1112.91 409.96 1114.66 408.24 1111.08 404.21 1110.91 403.62 1109.51 400.3 1108.44 400.16 1107.05 396.78 1109.17 393.78 1109.02 392.26 1114.24 389.3 1114.93 390.33 1117.01 389.4 1120.38 385.46 1124.41 394.46 1131.21 394.67 1138.25 397.77 1140.91 398.84 1143.65 393.64 1150.6 393.44 1154.84 401.46 1155.18 402.2 1156.76 401.76 1158.56 397.9 1160.74 398.14 1167.34 388.52 1170.5 395.15 1175.91 391.55 1176.74 392.06 1181.88 388.9 1186.44 391.22 1189.78 396.93 1189.61 396.32 1193.32 392.6 1196.51 392.37 1198.95 393.71 1200.01 396.09 1198.92 399.38 1200.06 396.84 1206.51 397.03 1209.32 404.82 1220.58 405.45 1226.17 408.4 1232.58 412.8 1238 411.37 1240.91 410.92 1249.31 414.77 1256 412.93 1259.06 412.21 1264.13 408.77 1264.99 407.42 1263.44 405.06 1264.32 403.95 1267.38 398.25 1266.61 395.24 1271.17 393.37 1271.21 392.94 1272.44 389.38 1272.28 389.24 1274.11 386.05 1275.91 386.35 1277.25 380.8 1276.14 380.52 1278.23 381.62 1279.1 377.83 1278.39 373.91 1282.1 373.47 1281.31 373.04 1282.4 369 1283.47 366.92 1282.97 365.04 1286.26 362.11 1284.42 362.61 1279.35 359.73 1277.3 359.37 1268.28 360.78 1265.69 359.99 1261.74 359.04 1261.08 357.71 1262.59 354.56 1260.26 352.32 1262.31 351.01 1270.47 347.18 1272.43 347.92 1276.48 346.36 1283.34 347.33 1287.78 342.14 1290.25 339.91 1286.7 341.95 1280.31 339.9 1277.76 342.63 1275.15 343.48 1267.56 340.5 1264.15 342.8 1262.46 343.62 1259.89 342.26 1256.79 340.52 1256.91 341.74 1255.76 340.55 1252.44 339.55 1252.39 339.77 1249.64 335.6 1248.26 333.9 1242.55 331.04 1242.03 328.65 1239.33 326.79 1239.04 325.65 1240.53 324.93 1239.34 322.91 1240.81 319.3 1238.39 318.38 1227.51 306.04 1218.51 305.03 1215.37 301.64 1215.39 300.94 1209.92 297.03 1209.02 297.49 1210.88 295.73 1211.14 280.55 1233.23 273.05 1225.31 271.38 1224.73 268.77 1226.23 264.21 1224.75 262.79 1222.35 266.01 1215.85 259.88 1214.08 257.54 1206.85 245.59 1219.01 239.12 1221.67 239.44 1223.18 237.2 1224.59 236.94 1228.98 232.53 1235.13 232.56 1238.27 223.2 1250.65 220.6 1256.3 222.58 1260.13 220.54 1264.33 222.11 1268.06 221.47 1273.85 222.97 1279.68 218.21 1283.45 132.81 1235.9 132.11 1234.56 125.91 1233.65 121.85 1230.47 120.05 1231.46 117.02 1229.14 111.4 1229.48 105.95 1225.13 101.07 1225.99 94.72 1224.65 93.01 1223.18 89.41 1223.67 82.81 1220.12 81.79 1216.93 72.12 1214.68 69.17 1208.14 70.32 1206.15 69.9 1203.19 71.67 1201.01 70.6 1199.77 72.74 1198.12 73.45 1195.42 71.02 1193.6 71.86 1191.86 70.94 1189.52 71.92 1188.86 72.11 1190.73 73.17 1189.7 73.93 1190.8 74.38 1189.07 76.21 1189.77 75.73 1185.4 77.36 1183.97 76.9 1182.69 78.05 1180.68 79.09 1181.64 80.93 1180.53 79.55 1176.31 80.74 1173.49 82.47 1174.59 86.14 1171.06 87.86 1171.08 86.23 1169.38 84.88 1170.63 84.6 1168.56 82.13 1166.27 83.63 1163.69 83.99 1159.15 86.58 1154.78 89.28 1153.83 89.99 1151.39 93.18 1149.99 93.4 1147.04 95.51 1144.32 91.31 1146.18 90.73 1148.84 87.33 1147.19 89.13 1150.24 84.83 1150.96 85.58 1152.8 83.21 1152.38 82 1153.9 78.25 1154.94 76.78 1157.45 73.91 1157.57 69.72 1160.01 66.98 1162.15 68.72 1164.31 66.17 1163.28 66.01 1166.52 63.86 1166.16 63.62 1167.72 60.52 1168.19 61.7 1169.41 59.92 1170.39 60.43 1172.21 57.94 1173.13 55.32 1177.07 56.54 1178.57 52.18 1180.62 53.02 1184.66 50.8 1183.44 48.67 1185.15 50.71 1185.1 49.28 1186.42 49.53 1191.64 45.36 1191.64 42.78 1194.12 44.65 1197.53 41.52 1200.23 44.29 1201.31 42.87 1202.08 43.14 1203.95 40.28 1206.1 41.71 1210.26 37.56 1217.98 36.09 1214.12 34.24 1215.27 28.71 1215.23 23.82 1212.6 23.38 1211.35 26.06 1209.91 26.34 1208.27 22.96 1208.44 21.34 1211.28 19.88 1211.49 19.47 1208.37 21.62 1204.55 17.79 1203.91 19.85 1198.02 17.59 1195.67 18.71 1193.26 16.34 1192.9 14.81 1189.25 16.05 1184.81 7.71 1184.28 6.63 1178.26 8.54 1175.57 12.72 1176.09 12.49 1173.68 9.8 1171.85 13.4 1166.82 14.05 1161.87 16.2 1158.07 15.09 1154.59 16.79 1153.39 19.75 1153.83 20.59 1149.67 18.31 1147.79 19.23 1142.56 16.43 1136.53 17.5 1133.26 15.74 1129.12 18.84 1125.62 15.58 1121.21 16.56 1117.07 11.03 1116.42 9.73 1113.78 12.27 1104.07 11.45 1101.4 12.83 1094.64 12.78 1092.01 9.78 1088.94 11.16 1084.89 10.24 1081.1 14.49 1076.56 14.82 1073.57 12.74 1070.37 17.06 1066.41 17.26 1063.54 14.02 1060.79 9.82 1059.49 9.55 1054.12 4.17 1040.62 7.27 1036.03 13.4 1030.78 13.26 1022.73 14.47 1018.65 12.39 1015.61 169.34 985.19 166.24 980.89 166.83 979.64 164.37 979.66 165.35 977.88 164.19 976.54 162.68 977.01 161.94 973.37 160.42 973.25 161.43 970.9 159.87 969.71 160.25 968.35 159.13 968.34 159.59 966.52 157.63 968 159.13 965.34 157.62 964.69 159.2 964.48 155.75 963.25 158.08 961.85 156.1 961.34 157.67 959.59 156.13 958.9 158.15 958.41 155.82 956.24 154.79 956.96 155.78 955.11 156.84 955.78 155.49 954.22 156.68 951.96 155.21 949.49 156.52 949.48 154.79 945.55 152.71 944.3 152.59 941.99 151.37 942.78 149.6 939.72 146.65 938.51 147.84 935.38 145.5 930.63 147.49 930.32 148.33 931.66 146.33 927.37 150.95 921.97 150.79 919.92 153.44 915.56 152.93 913.29 156.24 910.69 155.56 909.22 156.63 908.27 161.12 909.01 162.98 911.45 164.33 909.19 167.14 912.04 168 910.71 171.34 910.18 176.79 912.34 178.41 909.64 181 909.49 185.12 906.3 185.29 902.45 188.57 896.3 189.24 897.49 195.46 897.97 197.75 895.33 202.95 894.59 206.86 892.53 209.45 889.28 212.68 888.43 215.08 885.58 217.32 884.49 218.47 885.63 223.03 882.62 225.88 882.31 226.56 883.78 229.86 884 231.29 885.41 238.17 884.92 241.01 886.07 244.03 891.56 247.29 892.74 251.94 890.98 254.48 894.17 255.57 893.3 259.24 894.45 262.27 892.98 264.75 894.57 271.03 889.34 273.19 888.85 274.79 889.72 277.15 898.82 293.71 899.24 297.26 905.61 297 910.6 300.1 914.07 299.64 922.34 301.82 924.55 303.55 931.61 299.24 940.19 303.59 940.71 Z"/>
<path id="Cerrado Tocantins Araguaia" d="M 243.57 388.37 245.57 386.82 247.83 387.78 251.84 386.49 252.93 387.93 256.44 385.44 271.09 388.89 272.5 387.17 277.23 386.43 277.42 385.34 279.75 386.57 282.06 385.02 284.14 386.3 285.37 383.88 297.27 382.06 301.27 383.25 306.89 381.05 309.03 381.45 309.21 382.76 311.36 383.55 311.79 386.18 313.48 386.59 315.64 386.29 319.1 382.62 319.78 383.63 322.89 382.54 326.05 383.29 330.45 389.55 337.79 389.55 339.56 391.4 339.98 395.7 345.01 397.73 350 406.96 352.96 407.47 354.13 417.1 355.99 419.97 356.09 425.67 365.55 427.72 365.06 423.67 367.02 420.47 369.78 418.4 369.57 417.34 372.63 416.74 374.26 415.05 377.99 416.19 378.58 417.45 389.54 415.34 391.84 416.87 392.05 418.83 399.84 421.89 404.75 419.94 407.55 420.91 408.5 422.68 410.79 422.62 410.51 420.81 412.67 419.22 412.7 413.62 408.44 409.25 407.57 404.74 404.6 403.5 402.74 396.62 407.34 394.46 411.08 388.44 410.96 384.58 412.42 381.61 409.84 377.7 410.84 374.41 415.44 374.9 419.3 377.68 421.12 377.28 428.26 381.58 429.54 384.04 437.56 386.24 437.65 390 438.84 389.82 438.41 390.57 440.27 391.76 441.99 391.09 443.67 392.31 443.07 393.85 447.82 395.11 448.35 397.31 450.66 397.63 451.14 399.12 452.24 398.33 453.83 403.02 455.44 403.87 454.93 405.42 460.39 407.24 458.72 410.8 461.9 411.94 450.26 417.27 448.48 425.32 444.59 428.77 444.78 433.39 442.14 437.21 444.95 438.2 443.43 440.21 445.7 441.02 444.7 442.59 446.39 443.78 446.87 446.06 450.73 446.14 449.49 451.09 452.43 451.34 451.67 453.4 452.85 456.9 451.06 458.68 453.33 460.74 450.88 463.49 451.73 470.21 450.34 471.24 450.87 473.99 449.09 476.82 451.58 477.42 453.26 480.94 453.13 482.47 451.36 482.22 450.92 483.72 453.91 485.79 456.22 484.13 456.7 485.38 454.86 487.87 458.86 491.84 458.42 494.37 461.26 494.62 460.55 500.41 465.24 500.13 462.98 503.01 466.98 502.82 468.76 505.78 467.41 510.35 471.92 510.55 479.6 520.34 482.76 521.65 491.16 520.17 494.13 517.74 494.44 518.76 495.83 518.01 502.02 519.89 503.67 522.37 505.95 523.79 507.38 523.11 508.31 524.95 509.39 522.18 514.57 521.2 517.69 525.83 523.56 527.03 526.23 525.28 528.59 526.08 529.36 524.36 531.24 525.54 534.75 525.17 537.98 523.04 539.25 525.05 540.79 523.77 542.55 524.45 544.45 523.69 544.67 521.58 546.27 520.77 555.4 525.85 555.02 524.04 557.08 523.99 558.6 521.74 560.08 521.75 560.35 519.37 559.22 519.29 562.01 516.5 560.83 515.71 563.5 514.88 566.82 511.17 569.39 516.18 572.98 518.03 573.46 521.79 576.18 524 576.61 522.82 578.3 524.39 580.37 524.12 582.84 522.38 585.96 527.15 588.36 528.5 590.66 527.44 599.49 528.03 600.46 526.61 601.63 528.39 609.72 530.68 611.61 532.64 616.18 532.7 617.52 533.61 615.34 535.24 614.91 537.43 612.91 536.83 612.39 539.55 611.66 538.65 610.76 540.25 610.13 539.24 609.18 542.45 606.84 541.78 606.45 543.08 609.39 544.06 607.01 547.18 606.43 551.56 608.61 552.32 608.41 553.66 609.71 553.35 611.09 557.58 606.75 561.08 606.3 563.85 604.08 563.95 608.6 574.1 608.58 577.84 606.86 579.15 607.8 580.43 606.16 581.82 606.51 584.25 602.45 584.95 599.57 587.48 597.61 586.08 594.32 588.02 595.35 591.16 597.9 593.66 595.99 594.52 595.75 596.41 593.67 596.53 594.04 598.57 590.31 599.74 590.77 603.44 589.02 605.62 587.55 603.85 587.05 607.34 583.57 600.16 581.8 599.59 580.57 600.54 577.83 596.96 574.66 596.37 573.06 597.6 571 594.95 568.78 595.29 568.91 594.19 567.15 595.28 567.76 596.35 565.18 596.29 561.17 599.04 559.87 597.23 557.91 597.71 558.74 599.3 558.01 598.67 555.37 600.97 555.97 603.24 553.87 604.44 555.18 605.29 554.44 608.41 555.42 608.93 556.96 606.35 557.62 607.85 556.03 608.4 556.43 609.48 553.87 609.74 552.17 614.13 554.06 617.47 552.41 620.42 553.41 621.24 553.09 624.43 551.24 624.97 552.51 625.46 552.17 629.32 550.14 629.42 552.01 632 550.5 638.68 551.23 639.58 548.34 641.03 547.27 643.45 549.42 644.24 545.93 647.12 540.14 648.11 540.88 649.7 538.5 652.68 535.96 652.42 536.56 649.83 533.83 648.96 532.93 646.75 524.73 643.74 521.05 646.64 519.57 645.63 514.49 648.73 510.68 647.65 509.43 649.2 511.23 650.69 511.2 652.89 508.77 655.08 504.2 657.18 498.54 655.01 495.18 659.65 492.2 659.29 490.35 663.39 484.4 659.8 478.44 660.21 478.39 657.03 476.71 657.14 475.77 660.1 472.06 658.09 468.19 658.35 463.64 656.42 463.99 658.05 462.55 660.01 457.83 663.06 454.07 660.03 450.08 661 449.31 658.25 445.17 655.53 437.3 662.28 436.85 665.85 434.95 668.28 428.51 670 424 668.67 422.34 666.63 422.48 673.57 409.12 678.89 405.24 676.55 403.94 673.84 403.76 667.96 400.38 659.86 395.56 658.51 391.8 661.66 388.81 659.62 389.25 658.54 387.39 658.58 386.37 656.16 381.71 655.5 379.67 652.67 384.55 642.12 385.09 637.3 390.21 628.61 388.37 628.2 387.41 629.39 385.93 627.25 382.56 627.77 381.07 625.56 379.78 625.92 379.23 620.14 375.81 617.63 378.01 611.12 376.86 603.23 372.48 603.19 362.6 596.48 347.51 601.47 348.19 605.5 346.74 607.04 346.44 605.17 345.34 605.24 344.39 606.44 339.76 606.49 336.87 609.02 334.75 607.5 331.59 608.13 330.58 606.3 329.81 607.35 331.07 610.31 328.63 611.67 328.39 614.97 327.25 615.37 330.1 616.56 328.25 619.27 331.13 619.95 330.48 625.16 326.5 630.67 319.98 634.13 318.6 638.52 315.19 638.63 310.95 635.48 311.81 629.24 308.92 625.69 307.05 625.73 306.73 620.01 305.66 619.17 301.59 620.68 298.8 617.63 296.26 617.52 291.26 617.92 287.63 619.87 280.88 616.49 277.29 617.08 275.67 615.03 272.38 614.17 270.85 610.62 266.94 610.06 261.77 606.28 259.21 606.51 256.84 602.38 247.61 596.69 241.54 598.07 240.72 590.3 236.91 589.47 234.12 585.14 237.96 581.4 238.16 577.51 240.73 574.92 241.44 570.99 237.84 559.29 230.92 550.59 229.99 547.45 227.91 547.22 225.97 544.78 225.53 541.44 223.12 540.23 222.47 536.82 219.32 535 213.44 535.53 214.73 526.46 217.03 521.01 221.39 515.17 229.35 511.53 231.85 509.03 237.34 489.38 243.52 476.74 245.14 462.83 248.72 458.71 249.27 452.3 247.88 445.33 250.86 436.52 250.59 422.54 253.2 418.49 251.25 415.97 241.69 411.26 224.77 398 222.62 394.76 226.58 393.16 227.9 394.13 230.04 391.89 234.58 391.03 235.35 389.07 237.87 389.22 238.39 387.73 242.11 386.91 243.57 388.37 Z"/>
<path id="Cantão" d="M 213.44 535.53 214.81 534.62 215.3 535.68 215.85 534.72 220.51 535.17 222.84 537.31 223.74 541.11 225.53 541.44 226.76 545.9 229.99 547.45 230.92 550.59 237.84 559.29 239.59 563.46 241.44 570.99 240.73 574.92 238.16 577.51 237.79 581.7 234.12 585.14 236.91 589.47 240.72 590.3 241.54 598.07 247.61 596.69 256.84 602.38 259.21 606.51 261.77 606.28 266.94 610.06 270.85 610.62 272.38 614.17 275.67 615.03 277.29 617.08 280.88 616.49 287.63 619.87 291.26 617.92 296.26 617.52 298.8 617.63 301.59 620.68 305.66 619.17 306.73 620.01 307.05 625.73 308.92 625.69 311.81 629.24 310.95 635.48 315.94 638.84 315.82 646.34 312.72 649.03 314.25 651.57 312.97 652.93 313.21 656.39 314.85 657.99 315.58 662.86 314.61 666.59 316.19 667.96 316.41 671.69 310.53 671.63 308.52 673.51 308.54 676.96 305.98 678.37 305.23 680.25 306.62 683.88 304.46 686.44 305.4 688.31 303.6 689.36 301.96 694.14 298.27 695.56 297.04 697.5 296.46 699.44 299.31 703.75 298.1 706.39 298.53 710.08 299.85 710.53 297.37 715.9 297.46 719.09 298.75 722.67 305.44 726.01 308.04 723.72 309.66 725.4 316.25 723.02 316.86 723.93 315.37 726.21 316.56 727.73 318.86 727.17 323.36 729.13 324.92 723.55 327.45 727.66 331.68 726.77 330.86 731.38 335.21 738.72 336.02 744.03 333.78 748.81 331.46 750.02 324.61 748.27 319.33 750.69 317.15 760.63 313.12 767.18 304.55 774.34 306.35 774.25 306.82 772.9 308.25 773.46 309.27 771.11 311.89 769.57 315.41 771.1 317.7 770.49 319.87 771.87 319.95 774.91 322.97 778.37 329.38 779.74 325.55 788.46 324.17 795.21 325.98 798.54 325.4 800.77 326.96 801.03 330.2 804.72 332.95 804 333.95 805.98 336.04 806.6 336.91 808.98 340.47 811.34 339.3 813.79 340.66 816.47 339.07 817.81 336.66 816.95 335.73 819.73 330.54 821.44 330.11 823.98 327.02 824.15 324.96 826 324.6 825.11 324.67 827.54 322.92 827.51 323.19 828.91 314.74 830.99 313.82 832.56 314.98 834.34 313.26 838.17 306.77 839.97 307.89 842.49 306.23 849.35 307.13 851.58 303.29 855.15 299.7 856.61 298.05 863.11 294.7 864.56 291.39 868.81 289.1 867.39 287.19 867.77 282.93 870.57 282.09 872.76 283.03 875.6 281.46 879.62 283.11 882.75 282.24 885.68 272.18 888.73 266.86 893.54 264.75 894.57 262.27 892.98 259.24 894.45 255.57 893.3 254.48 894.17 251.94 890.98 246.7 892.72 244.03 891.56 241.01 886.07 238.17 884.92 231.29 885.41 225.11 882.21 219.77 883.91 218.47 885.63 217.74 884.57 216.07 885.03 212.68 888.43 209.45 889.28 206.86 892.53 202.95 894.59 197.75 895.33 195.46 897.97 189.24 897.49 188.57 896.3 185.29 902.45 185.12 906.3 181 909.49 178.41 909.64 176.79 912.34 171.34 910.18 168 910.71 167.14 912.04 164.33 909.19 162.98 911.45 161.12 909.01 155.77 908.81 156.24 910.69 152.65 913.93 153.44 915.56 150.79 919.92 150.95 921.97 146.33 927.37 148.49 930.99 148.04 931.9 147.56 930.35 145.54 930.47 147.84 935.38 146.6 938.26 149.6 939.72 151.37 942.78 152.59 941.99 152.71 944.3 154.79 945.55 156.52 949.48 155.21 949.49 156.68 951.96 155.49 954.22 156.84 955.78 155.78 955.11 154.79 956.96 155.82 956.24 158.15 958.41 156.13 958.9 157.67 959.59 156.1 961.34 158.08 961.85 155.75 963.25 159.2 964.48 157.62 964.69 159.13 965.34 157.63 968 159.59 966.52 159.13 968.34 160.25 968.35 159.87 969.71 161.43 970.9 160.42 973.25 161.94 973.37 162.68 977.01 164.19 976.54 165.35 977.88 164.37 979.66 166.83 979.64 166.24 980.89 169.34 985.19 10.74 1015.93 6.19 1015.63 1.17 1008.59 2.15 1004.57 1 995.56 3.38 988.64 3.14 984.12 5.72 980.53 6.53 975.51 8.16 971.79 12.19 968.96 14.08 963.92 14.89 958.19 13.7 955.73 13.82 944.91 16.54 943.08 17.62 939.5 20.7 937.17 21.98 934.27 19.55 921.04 20.28 918.68 18.27 913.46 23.36 907.88 23.58 905.32 20.47 902.09 20 898.19 21.55 893.59 24.53 892.38 28.14 884.44 25.44 873.92 23.04 871.98 23.02 869.52 26.24 867.29 29.31 862.1 32.75 861.79 33.77 860.59 33.92 857.88 36.18 854.38 36.75 845.11 42.06 842.92 41.23 839.42 43.46 829.45 47.49 827.34 52.24 821.75 51.48 817.19 58.05 800.02 56.81 793.06 55.33 791.35 56.38 786.59 61.56 780.34 62.31 777.6 70.54 770.99 76.61 750.91 82.76 742.28 87.12 727.23 94.54 717.23 96.64 706.03 101.44 701.2 101.45 697.76 104.26 693.51 101.35 687.65 102.38 686.33 101.76 682.4 104.17 675.47 110.07 666.14 109.66 660.13 110.76 655.92 112.46 652.97 117.64 649.7 119.38 644.22 123.79 643.71 127.38 638.97 133.04 634.68 132.67 631.47 139.43 622.54 143.35 611.51 151.09 603.93 158.78 592.34 168.39 584.48 182.94 581.79 199.52 557.9 204.84 546.34 211.82 540.74 213.44 535.53 Z"/>
<path id="Capim Dourado" d="M 454.07 660.03 458.44 663.09 462.55 660.01 463.99 658.05 463.64 656.42 468.19 658.35 472.06 658.09 475.77 660.1 476.71 657.14 477.98 656.97 478.44 660.21 484.4 659.8 490.35 663.39 492.2 659.29 495.18 659.65 498.54 655.01 504.2 657.18 508.77 655.08 511.2 652.89 511.23 650.69 509.43 649.2 510.68 647.65 514.49 648.73 519.57 645.63 521.05 646.64 524.73 643.74 532.93 646.75 533.83 648.96 536.56 649.83 535.96 652.42 538.5 652.68 540.88 649.7 540.14 648.11 545.93 647.12 549.42 644.24 547.27 643.45 548.34 641.03 551.23 639.58 550.5 638.68 552.01 632 550.14 629.42 552.17 629.32 552.51 625.46 551.24 624.97 553.09 624.43 553.41 621.24 552.41 620.42 554.06 617.47 552.17 614.13 553.87 609.74 556.43 609.48 556.03 608.4 557.62 607.85 556.96 606.35 555.42 608.93 554.14 607.98 555.18 605.29 553.87 604.44 555.97 603.24 555.04 601.43 558.01 598.67 558.74 599.3 558.11 597.51 560.06 597.31 561.17 599.04 565.18 596.29 567.76 596.35 567.15 595.28 568.91 594.19 568.78 595.29 571 594.95 573.06 597.6 574.66 596.37 577.83 596.96 580.57 600.54 581.8 599.59 583.57 600.16 587.05 607.34 582.36 609.09 585.51 609.66 586.32 611.38 582.32 617.29 589.47 619.22 591.59 618.31 591.05 619.54 592.04 620.19 594.89 619.08 597.01 620.11 602.22 617.38 605.33 617.57 607.1 620.27 604.04 620.77 605.3 622.67 604.24 623.95 604.4 628.12 607.96 628.62 610.05 626.53 610.35 629.41 616.56 631.62 616.64 637.25 618.63 638.44 620.45 637.92 621.79 640.3 620.28 645.17 621.85 648.33 617.79 652.14 617.71 654.62 619.26 655.95 623.1 655.71 624.98 660.79 631.39 667.49 630.65 671.88 633.39 672.74 636.99 669.89 646.06 669.19 651.32 672.3 648.92 674.76 648.66 677.44 650.17 679.6 656.43 681.61 657.67 683.67 660.74 682.77 662.68 683.76 662.96 685.18 660.34 687.59 660.35 689.06 666.51 695.32 657.71 700.08 657.88 702.95 655.54 706.88 654.44 712.52 648.06 716.89 649 722.73 651.4 725.66 657.11 725.4 660.45 727.2 661.36 728.96 660.14 734.57 665.62 735.38 670.29 733.35 673.34 738.09 672.78 740.66 675.45 742.75 673.65 744.83 676.62 746 675.71 753.34 677.75 755.43 675.97 757.91 676.78 761.22 675.92 763.78 679.12 768.24 679.07 772.87 681 777.63 684.88 778.18 690.69 784.4 693.24 792.1 699.62 794.45 701.91 792.73 708.25 794.12 718.09 792.24 720.62 794.34 717.91 797.45 716.68 796.36 709.73 796.58 706.66 801.37 704.85 801.83 700.14 798.19 696.55 798.56 692.94 800.73 689.01 798.92 682.39 799.83 675.79 797.67 673.19 798.32 668.32 797.16 664.66 797.43 662.27 799.43 658.93 800.11 656.69 799.39 655.55 801.48 653.65 798.93 653 799.84 649.62 798.51 648.87 796.28 645.91 794.96 643.78 791.13 638.83 789.51 637.14 790.68 631.81 788.89 629.72 790.38 628.39 789.5 627.03 791.17 622.2 790.76 618.72 794.52 615.31 795.99 608.72 796.13 604.78 793.29 603.08 794.51 601.48 793.26 599.3 797.94 593.9 804.19 596.84 806.11 596.77 807.49 594.99 808.94 592.04 807.84 590.65 808.63 590.83 809.92 589.53 810.52 589.97 814 587.63 814.52 588.02 817.81 585.46 815.59 581.54 822.23 578.38 823.74 576.98 819.44 574.49 821.72 573.33 825.85 569.8 828.15 559.67 829.73 556.56 826.94 547.42 829.69 547.65 832.9 545.25 835.09 530.06 846.58 525.21 848.67 523.17 847.9 521.17 850.3 518.98 845.76 517.38 845.39 514.63 838.28 512.1 837.73 512.39 836.41 510.73 837 510.61 835.22 507.73 832.56 503.49 832.06 501.07 830.04 495.64 831.64 493.31 828.76 491.34 828.51 490.91 829.55 488.35 827.63 483.09 829.46 478.67 829.01 474 832.12 474.04 831.16 471.04 831.21 470.27 829.8 462.87 829.91 459.91 825.69 456.05 824.32 455.86 817.59 457.79 814.52 455.29 814 454.63 815.61 452.54 815.93 448.12 814.47 446.65 812.08 442.93 815.55 437.62 817.87 435.33 823.13 430.54 828.42 427.33 827.47 424.99 834.81 421.81 838.18 410.12 837.86 405.11 825.14 397.46 826.78 393.01 830.44 377.17 830.32 371.47 825.95 370.45 823.8 371.11 812.2 374.39 803.82 373.43 802.18 369.75 801 368 797.65 374.01 778.33 378.14 773.91 372.63 773.5 365.58 768.28 363.19 768.44 361.38 770.6 358.2 769.97 354.56 772.44 352.5 770.64 346.21 771.68 343.55 769.39 342.34 772.12 340.14 773.4 340.3 775.45 337.61 775.31 336.15 777.69 334.34 776.74 333.67 778.66 331.26 778.12 329.09 779.87 322.97 778.37 319.95 774.91 319.87 771.87 317.7 770.49 315.41 771.1 311.89 769.57 309.27 771.11 308.25 773.46 306.73 772.92 304.77 774.89 305.53 772.99 312.83 767.58 316.97 760.98 319.33 750.69 324.61 748.27 331.46 750.02 333.78 748.81 335.94 744.8 335.21 738.72 330.86 731.38 331.68 726.77 327.45 727.66 324.92 723.55 323.36 729.13 318.86 727.17 316.21 727.54 315.36 725.8 316.34 723.03 309.66 725.4 308.04 723.72 305.5 726.01 298.75 722.67 297.29 716.31 299.84 710.8 298.53 710.08 298.1 706.39 299.31 703.75 296.43 699.24 298.07 695.73 301.96 694.14 303.6 689.36 305.4 688.31 304.46 686.44 306.62 683.88 305.23 680.25 305.98 678.37 308.54 676.96 308.52 673.51 310.53 671.63 316.34 671.96 316.19 667.96 314.61 666.59 315.58 662.86 314.85 657.99 313.21 656.39 312.97 652.93 314.25 651.57 312.72 649.03 315.82 646.34 315.94 638.84 318.6 638.52 319.98 634.13 326.5 630.67 330.48 625.16 331.13 619.95 328.25 619.27 330.1 616.56 327.25 615.37 328.39 614.97 328.63 611.67 331.07 610.31 329.81 607.35 330.74 606.17 331.59 608.13 334.75 607.5 336.87 609.02 339.76 606.49 344.39 606.44 345.34 605.24 346.44 605.17 346.74 607.04 348.19 605.5 347.51 601.47 362.17 596.38 372.53 603.21 376.86 603.23 378.01 611.12 375.81 617.63 379.23 620.14 379.78 625.92 381.07 625.56 382.56 627.77 385.93 627.25 387.41 629.39 388.37 628.2 390.21 628.61 385.09 637.3 384.55 642.12 379.67 652.67 381.71 655.5 386.37 656.16 387.39 658.58 389.25 658.54 388.81 659.62 391.8 661.66 395.56 658.51 400.38 659.86 403.76 667.96 403.94 673.84 405.24 676.55 409.12 678.89 422.48 673.57 422.34 666.63 424 668.67 428.51 670 434.95 668.28 436.85 665.85 437.3 662.28 445.17 655.53 449.31 658.25 449.92 660.87 454.07 660.03 Z"/>
</g>
</svg>